<svg width="177" height="177" viewBox="0 0 177 177" fill="none" xmlns="http://www.w3.org/2000/svg">
<path d="M0 43.5586H177V177H0V43.5586Z" fill="#CE571B"/>
<path d="M24.3208 72.159C26.9144 72.5249 29.0469 73.3145 30.7183 74.5276C32.4089 75.7216 33.6768 78.1094 34.5221 81.6912C35.3098 85.0419 36.1551 87.2564 37.058 88.3348C37.961 89.3939 39.2289 89.9716 40.8619 90.0679C41.7648 90.1257 42.2163 90.4145 42.2163 90.9345C42.2163 91.4929 41.4863 91.7721 40.0262 91.7721L28.9316 91.5122C27.7789 90.3568 26.9912 88.2963 26.5686 85.3307C26.0307 81.5371 25.4735 78.8604 24.8972 77.3006C24.3208 75.7408 23.4563 74.6239 22.3036 73.9499C21.151 73.2759 19.8158 72.9389 18.2981 72.9389C17.8562 72.9389 17.251 72.9678 16.4826 73.0256C16.4826 79.804 16.5018 83.9827 16.5402 85.5618C16.5979 87.1216 16.9148 88.2481 17.4912 88.9414C18.0675 89.6154 19.1626 89.9909 20.7763 90.0679C21.6409 90.1257 22.0731 90.4145 22.0731 90.9345C22.0731 91.4544 21.6985 91.7144 20.9492 91.7144L12.1024 91.4833C10.9113 91.4833 9.38396 91.5314 7.52045 91.6277C5.81064 91.724 4.72519 91.7721 4.26412 91.7721C3.47645 91.7721 3.08261 91.4929 3.08261 90.9345C3.08261 90.3953 3.42842 90.1257 4.12003 90.1257C5.19587 90.1257 6.18526 89.8561 7.0882 89.3169C8.01035 88.7777 8.47142 86.4958 8.47142 82.4711L8.4426 77.0984L8.47142 66.7286C8.47142 61.3752 8.23128 58.1112 7.75099 56.9365C7.28992 55.7426 6.03157 55.1264 3.97595 55.0879C3.16907 55.0686 2.76562 54.7894 2.76562 54.2502C2.76562 53.6917 3.30355 53.4125 4.37939 53.4125C9.79701 53.4125 14.3885 53.297 18.154 53.0659C19.8254 52.9503 21.3335 52.8926 22.6783 52.8926C27.0393 52.8926 30.4589 53.7688 32.9372 55.5211C35.4155 57.2543 36.6546 59.5266 36.6546 62.3381C36.6546 64.2252 36.0686 65.9198 34.8967 67.4219C33.7248 68.9239 32.2552 70.0408 30.4877 70.7725C28.7395 71.5043 26.6839 71.9665 24.3208 72.159ZM16.4826 70.9459C16.9821 70.9651 17.3567 70.9747 17.6065 70.9747C19.2778 70.9747 20.9588 70.6666 22.6495 70.0504C24.3593 69.4149 25.56 68.4136 26.2516 67.0464C26.9624 65.6599 27.3178 64.1867 27.3178 62.6269C27.3178 60.2198 26.607 58.3423 25.1854 56.9943C23.7637 55.6463 21.929 54.9723 19.6813 54.9723C18.7399 54.9723 17.6737 55.1456 16.4826 55.4923V70.9459Z" fill="#F8F8F8"/>
<path d="M54.8843 85.1574L57.2473 78.5716C58.5345 74.932 59.1781 72.4383 59.1781 71.0903C59.1781 69.492 58.2751 68.5676 56.4693 68.3173C55.6624 68.1825 55.2589 67.9033 55.2589 67.4796C55.2589 66.9404 55.6528 66.6708 56.4404 66.6708C56.7478 66.6708 57.305 66.719 58.1118 66.8153C58.9571 66.9116 59.9561 66.9597 61.1088 66.9597C61.8773 66.9597 62.809 66.9019 63.9041 66.7864C64.8262 66.6708 65.3545 66.6131 65.489 66.6131C66.4112 66.6131 66.8722 66.9019 66.8722 67.4796C66.8722 67.807 66.5745 68.0477 65.9789 68.2018C64.4996 68.6062 63.4046 69.4342 62.6938 70.6859C61.9829 71.9183 60.4844 75.789 58.1983 82.2978C55.2205 90.7515 53.0592 96.4034 51.7144 99.2534C50.3888 102.103 48.9096 104.135 47.2766 105.348C45.6628 106.561 43.9338 107.168 42.0895 107.168C40.4373 107.168 39.1405 106.754 38.1992 105.926C37.277 105.117 36.816 104.068 36.816 102.777C36.816 101.949 37.1426 101.16 37.7957 100.409C38.4681 99.6771 39.3423 99.3112 40.4181 99.3112C42.1471 99.3112 43.2422 100.341 43.7033 102.402C43.953 103.442 44.3372 103.962 44.8559 103.962C46.1623 103.962 47.5648 102.623 49.0632 99.9467C50.581 97.2892 51.3398 95.3058 51.3398 93.9963C51.3398 93.3416 50.7346 91.5796 49.5243 88.7103C48.3332 85.8218 46.7195 82.0859 44.683 77.5028C42.6658 72.9197 41.3787 70.2911 40.8215 69.6171C40.2644 68.9239 39.6208 68.4906 38.8908 68.3173C38.1416 68.1632 37.7669 67.8937 37.7669 67.5085C37.7669 66.9501 38.2568 66.6708 39.2366 66.6708C39.4671 66.6708 40.2452 66.7382 41.5708 66.873C42.3777 66.9693 43.4151 67.0175 44.683 67.0175C46.7771 67.0175 48.6118 66.9404 50.1871 66.7864L51.4263 66.6708C52.1947 66.6708 52.5789 66.9308 52.5789 67.4507C52.5789 67.9514 52.1179 68.2884 51.1957 68.4617C50.581 68.5773 50.1007 68.8469 49.7549 69.2705C49.4091 69.6749 49.2362 70.0697 49.2362 70.4548C49.2362 70.8785 49.7453 72.4864 50.7635 75.2786C51.8009 78.0709 53.1745 81.3638 54.8843 85.1574Z" fill="#F8F8F8"/>
<path d="M78.5317 88.7681C77.3406 89.9042 76.1398 90.7611 74.9295 91.3388C73.7192 91.8973 72.4993 92.1765 71.2697 92.1765C69.3102 92.1765 67.7925 91.5892 66.7166 90.4145C65.66 89.2206 65.1317 87.7763 65.1317 86.0817C65.1317 84.7723 65.4487 83.6072 66.0827 82.5866C66.7358 81.5467 67.5331 80.7476 68.4745 80.1891C69.4351 79.6114 71.0104 78.9278 73.2005 78.1383C75.0448 77.4836 76.2743 76.9732 76.8891 76.6074C77.5231 76.2222 78.0514 75.6734 78.474 74.9609C78.8967 74.2292 79.108 73.2856 79.108 72.1302C79.108 70.8592 78.791 69.8482 78.157 69.0972C77.5231 68.3269 76.6489 67.9418 75.5347 67.9418C74.5741 67.9418 73.8921 68.1825 73.4887 68.6639C73.0852 69.1646 72.7778 69.9638 72.5665 71.0614C72.1246 73.2567 70.9431 74.3543 69.022 74.3543C68.2343 74.3543 67.5619 74.1232 67.0048 73.6611C66.4477 73.1989 66.1691 72.5345 66.1691 71.668C66.1691 69.8193 67.1681 68.4425 69.1661 67.5374C71.1833 66.6131 73.5847 66.1509 76.3704 66.1509C78.7718 66.1509 80.7218 66.5168 82.2203 67.2485C83.738 67.9803 84.7081 68.8276 85.1308 69.7905C85.5534 70.7533 85.7648 72.2553 85.7648 74.2966L85.7071 81.1424C85.7071 84.7434 85.8224 87.0542 86.0529 88.0748C86.3027 89.0954 86.8214 89.6057 87.6091 89.6057C87.7243 89.6057 87.878 89.5961 88.0701 89.5768C88.4544 89.5383 88.7137 89.5191 88.8482 89.5191C89.6359 89.5191 90.0297 89.7405 90.0297 90.1834C90.0297 90.4723 89.8664 90.7226 89.5398 90.9345C89.2132 91.127 88.2238 91.3774 86.5716 91.6855C84.9387 91.9936 83.4594 92.1476 82.1338 92.1476C80.8082 92.1476 79.8957 91.8973 79.3962 91.3966C78.9159 90.8767 78.6277 90.0005 78.5317 88.7681ZM78.9063 77.214C78.4452 77.7724 77.3406 78.5138 75.5923 79.4381C73.9978 80.2854 72.9315 81.0364 72.3936 81.6912C71.8557 82.3652 71.5867 83.3376 71.5867 84.6086C71.5867 85.9566 71.8653 86.9868 72.4224 87.6993C72.9988 88.3926 73.7 88.7392 74.5261 88.7392C75.6403 88.7392 76.6778 88.2289 77.6383 87.2083C78.5989 86.1684 79.0792 84.3486 79.0792 81.7489C79.0792 80.9402 79.0216 79.4285 78.9063 77.214Z" fill="#F8F8F8"/>
<path d="M99.8448 71.7835C101.151 69.9349 102.563 68.5484 104.081 67.6241C105.618 66.6997 107.26 66.2376 109.009 66.2376C110.469 66.2376 111.804 66.6131 113.014 67.3641C114.225 68.1151 115.041 69.0105 115.464 70.0504C115.906 71.0903 116.127 72.5634 116.127 74.4699L115.867 85.9951C115.867 87.5741 116.011 88.6236 116.299 89.1436C116.588 89.6635 117.193 90.0005 118.115 90.1546C118.883 90.2894 119.268 90.5975 119.268 91.0789C119.268 91.5796 118.893 91.8299 118.144 91.8299C117.51 91.8299 116.117 91.7529 113.965 91.5988C113.216 91.5603 112.611 91.541 112.15 91.541C111.708 91.541 110.44 91.6277 108.346 91.801H106.934C106.146 91.801 105.752 91.541 105.752 91.0211C105.752 90.5975 106.108 90.3182 106.819 90.1834C107.472 90.0486 107.99 89.8272 108.375 89.5191C108.759 89.211 109.009 87.6993 109.124 84.9841C109.258 82.2689 109.326 79.5729 109.326 76.8962C109.326 73.9307 109.086 71.8991 108.605 70.8014C108.144 69.7038 107.251 69.155 105.925 69.155C104.292 69.155 102.775 70.3585 101.372 72.7656C99.9889 75.1535 99.2973 78.8315 99.2973 83.7998C99.2973 85.7255 99.3934 87.1216 99.5855 87.9882C99.7776 88.8547 100.008 89.4035 100.277 89.6346C100.565 89.8464 101.161 90.0294 102.064 90.1834C102.602 90.2797 102.871 90.5589 102.871 91.0211C102.871 91.5603 102.477 91.8299 101.689 91.8299C101.305 91.8299 100.882 91.8106 100.421 91.7721C98.5769 91.5988 97.5779 91.5122 97.4242 91.5122C94.6577 91.5122 92.3908 91.6084 90.6233 91.801C90.3352 91.8395 90.1046 91.8588 89.9317 91.8588C89.2209 91.8588 88.8655 91.5796 88.8655 91.0211C88.8655 90.5397 89.1825 90.2605 89.8165 90.1834C90.7962 90.0679 91.459 89.7983 91.8048 89.3747C92.1507 88.951 92.4004 87.6319 92.5541 85.4174C92.727 83.1836 92.8134 80.5261 92.8134 77.445C92.8134 73.5166 92.6694 71.0903 92.3812 70.166C92.093 69.2224 91.4014 68.5388 90.3064 68.1151C89.5187 67.807 89.1248 67.5085 89.1248 67.2197C89.1248 66.7575 89.6916 66.5264 90.8251 66.5264C94.0142 66.5264 96.5981 66.4012 98.5769 66.1509C99.3069 67.8263 99.7296 69.7038 99.8448 71.7835Z" fill="#F8F8F8"/>
<path d="M78.6602 116.755C81.2614 117.121 83.4002 117.91 85.0766 119.123C86.7722 120.317 88.0439 122.705 88.8917 126.287C89.6817 129.638 90.5296 131.852 91.4352 132.93C92.3408 133.99 93.6125 134.567 95.2503 134.664C96.1559 134.721 96.6087 135.01 96.6087 135.53C96.6087 136.089 95.8765 136.368 94.4121 136.368L83.2846 136.108C82.1285 134.952 81.3385 132.892 80.9146 129.926C80.3751 126.133 79.8163 123.456 79.2383 121.896C78.6602 120.337 77.7931 119.22 76.637 118.546C75.4809 117.872 74.1418 117.535 72.6195 117.535C72.1764 117.535 71.5694 117.564 70.7987 117.621C70.7987 124.4 70.8179 128.578 70.8565 130.158C70.9143 131.717 71.2322 132.844 71.8103 133.537C72.3883 134.211 73.4866 134.587 75.1052 134.664C75.9723 134.721 76.4058 135.01 76.4058 135.53C76.4058 136.05 76.0301 136.31 75.2786 136.31L66.4055 136.079C65.2108 136.079 63.679 136.127 61.81 136.223C60.0951 136.32 59.0064 136.368 58.544 136.368C57.7539 136.368 57.3589 136.089 57.3589 135.53C57.3589 134.991 57.7058 134.721 58.3994 134.721C59.4785 134.721 60.4708 134.452 61.3764 133.913C62.3013 133.373 62.7637 131.091 62.7637 127.067L62.7348 121.694L62.7637 111.324C62.7637 105.971 62.5229 102.707 62.0412 101.532C61.5787 100.338 60.3166 99.7221 58.2549 99.6836C57.4457 99.6643 57.041 99.3851 57.041 98.8459C57.041 98.2874 57.5805 98.0082 58.6596 98.0082C64.0933 98.0082 68.6984 97.8927 72.475 97.6616C74.1514 97.5461 75.664 97.4883 77.0128 97.4883C81.3867 97.4883 84.8165 98.3645 87.3021 100.117C89.7877 101.85 91.0305 104.122 91.0305 106.934C91.0305 108.821 90.4429 110.516 89.2675 112.018C88.0921 113.52 86.6181 114.636 84.8454 115.368C83.0919 116.1 81.0302 116.562 78.6602 116.755ZM70.7987 115.542C71.2997 115.561 71.6754 115.57 71.9259 115.57C73.6022 115.57 75.2882 115.262 76.9838 114.646C78.6987 114.011 79.903 113.009 80.5967 111.642C81.3096 110.256 81.6661 108.782 81.6661 107.223C81.6661 104.816 80.9531 102.938 79.5273 101.59C78.1014 100.242 76.2613 99.568 74.0069 99.568C73.0627 99.568 71.9933 99.7413 70.7987 100.088V115.542Z" fill="#F8F8F8"/>
<path d="M109.314 129.753L111.684 123.167C112.975 119.528 113.621 117.034 113.621 115.686C113.621 114.088 112.715 113.163 110.904 112.913C110.095 112.778 109.69 112.499 109.69 112.075C109.69 111.536 110.085 111.267 110.875 111.267C111.183 111.267 111.742 111.315 112.551 111.411C113.399 111.507 114.401 111.555 115.557 111.555C116.328 111.555 117.263 111.498 118.361 111.382C119.286 111.267 119.816 111.209 119.951 111.209C120.875 111.209 121.338 111.498 121.338 112.075C121.338 112.403 121.039 112.643 120.442 112.797C118.958 113.202 117.86 114.03 117.147 115.282C116.434 116.514 114.931 120.385 112.638 126.893C109.652 135.347 107.484 140.999 106.135 143.849C104.806 146.699 103.322 148.731 101.684 149.944C100.066 151.157 98.3313 151.764 96.4816 151.764C94.8245 151.764 93.5239 151.35 92.5797 150.522C91.6548 149.713 91.1924 148.663 91.1924 147.373C91.1924 146.545 91.52 145.756 92.1751 145.005C92.8495 144.273 93.7262 143.907 94.8052 143.907C96.5394 143.907 97.6377 144.937 98.1001 146.998C98.3506 148.037 98.736 148.557 99.2562 148.557C100.566 148.557 101.973 147.219 103.476 144.542C104.998 141.885 105.759 139.901 105.759 138.592C105.759 137.937 105.152 136.175 103.938 133.306C102.744 130.417 101.125 126.682 99.0828 122.099C97.0596 117.515 95.7686 114.887 95.2099 114.213C94.6511 113.52 94.0056 113.086 93.2734 112.913C92.5219 112.759 92.1462 112.489 92.1462 112.104C92.1462 111.546 92.6375 111.267 93.6202 111.267C93.8514 111.267 94.6318 111.334 95.9613 111.469C96.7706 111.565 97.8111 111.613 99.0828 111.613C101.183 111.613 103.023 111.536 104.603 111.382L105.846 111.267C106.617 111.267 107.002 111.527 107.002 112.046C107.002 112.547 106.54 112.884 105.615 113.057C104.998 113.173 104.517 113.443 104.17 113.866C103.823 114.271 103.649 114.665 103.649 115.051C103.649 115.474 104.16 117.082 105.181 119.874C106.222 122.667 107.599 125.96 109.314 129.753Z" fill="#F8F8F8"/>
<path d="M133.032 133.364C131.837 134.5 130.633 135.357 129.419 135.935C128.205 136.493 126.982 136.772 125.748 136.772C123.783 136.772 122.261 136.185 121.182 135.01C120.122 133.816 119.592 132.372 119.592 130.677C119.592 129.368 119.91 128.203 120.546 127.182C121.201 126.142 122.001 125.343 122.945 124.785C123.908 124.207 125.488 123.524 127.685 122.734C129.535 122.079 130.768 121.569 131.384 121.203C132.02 120.818 132.55 120.269 132.974 119.557C133.398 118.825 133.61 117.881 133.61 116.726C133.61 115.455 133.292 114.444 132.656 113.693C132.02 112.923 131.144 112.537 130.026 112.537C129.063 112.537 128.379 112.778 127.974 113.26C127.569 113.76 127.261 114.559 127.049 115.657C126.606 117.852 125.421 118.95 123.494 118.95C122.704 118.95 122.03 118.719 121.471 118.257C120.912 117.795 120.633 117.13 120.633 116.264C120.633 114.415 121.635 113.038 123.639 112.133C125.662 111.209 128.07 110.747 130.864 110.747C133.273 110.747 135.228 111.112 136.731 111.844C138.254 112.576 139.227 113.423 139.651 114.386C140.074 115.349 140.286 116.851 140.286 118.892L140.229 125.738C140.229 129.339 140.344 131.65 140.575 132.671C140.826 133.691 141.346 134.201 142.136 134.201C142.252 134.201 142.406 134.192 142.599 134.173C142.984 134.134 143.244 134.115 143.379 134.115C144.169 134.115 144.564 134.336 144.564 134.779C144.564 135.068 144.4 135.318 144.073 135.53C143.745 135.723 142.753 135.973 141.096 136.281C139.458 136.589 137.974 136.743 136.645 136.743C135.315 136.743 134.4 136.493 133.899 135.992C133.417 135.472 133.128 134.596 133.032 133.364ZM133.408 121.81C132.945 122.368 131.837 123.109 130.084 124.034C128.485 124.881 127.415 125.632 126.876 126.287C126.336 126.961 126.066 127.933 126.066 129.204C126.066 130.552 126.346 131.583 126.905 132.295C127.483 132.988 128.186 133.335 129.014 133.335C130.132 133.335 131.172 132.825 132.136 131.804C133.099 130.764 133.581 128.944 133.581 126.345C133.581 125.536 133.523 124.024 133.408 121.81Z" fill="#F8F8F8"/>
<path d="M154.408 116.379C155.719 114.531 157.135 113.144 158.657 112.22C160.198 111.295 161.846 110.833 163.599 110.833C165.064 110.833 166.403 111.209 167.617 111.96C168.831 112.711 169.65 113.606 170.074 114.646C170.517 115.686 170.738 117.159 170.738 119.066L170.478 130.591C170.478 132.17 170.623 133.219 170.912 133.739C171.201 134.259 171.808 134.596 172.733 134.75C173.503 134.885 173.889 135.193 173.889 135.675C173.889 136.175 173.513 136.426 172.761 136.426C172.126 136.426 170.729 136.349 168.571 136.195C167.819 136.156 167.212 136.137 166.75 136.137C166.307 136.137 165.035 136.223 162.935 136.397H161.518C160.728 136.397 160.333 136.137 160.333 135.617C160.333 135.193 160.69 134.914 161.403 134.779C162.058 134.644 162.578 134.423 162.963 134.115C163.349 133.807 163.599 132.295 163.715 129.58C163.85 126.865 163.917 124.169 163.917 121.492C163.917 118.526 163.676 116.495 163.195 115.397C162.732 114.299 161.836 113.751 160.507 113.751C158.869 113.751 157.347 114.954 155.94 117.361C154.553 119.749 153.859 123.427 153.859 128.396C153.859 130.321 153.955 131.717 154.148 132.584C154.341 133.45 154.572 133.999 154.842 134.23C155.131 134.442 155.728 134.625 156.634 134.779C157.173 134.875 157.443 135.155 157.443 135.617C157.443 136.156 157.048 136.426 156.258 136.426C155.873 136.426 155.449 136.406 154.986 136.368C153.137 136.195 152.135 136.108 151.98 136.108C149.206 136.108 146.932 136.204 145.159 136.397C144.87 136.435 144.639 136.454 144.466 136.454C143.753 136.454 143.396 136.175 143.396 135.617C143.396 135.135 143.714 134.856 144.35 134.779C145.333 134.664 145.998 134.394 146.344 133.97C146.691 133.547 146.942 132.228 147.096 130.013C147.269 127.779 147.356 125.122 147.356 122.041C147.356 118.112 147.212 115.686 146.922 114.762C146.633 113.818 145.94 113.134 144.841 112.711C144.051 112.403 143.656 112.104 143.656 111.815C143.656 111.353 144.225 111.122 145.362 111.122C148.56 111.122 151.152 110.997 153.137 110.747C153.869 112.422 154.293 114.299 154.408 116.379Z" fill="#F8F8F8"/>
<path d="M88.0254 169.043C85.8509 168.932 82.4675 168.877 77.875 168.877C76.2746 168.877 74.9743 168.924 73.9741 169.017C73.7305 169.034 73.5522 169.043 73.4391 169.043C73.1086 169.043 72.9434 168.915 72.9434 168.66C72.9434 168.54 72.9868 168.459 73.0738 168.417C73.1608 168.366 73.3739 168.314 73.7131 168.263C74.2524 168.187 74.6655 168.033 74.9526 167.803C75.2396 167.565 75.4396 167.215 75.5527 166.755C75.6745 166.287 75.7441 165.102 75.7615 163.202C75.7789 161.294 75.7875 159.027 75.7875 156.403C75.7875 155.355 75.7093 154.597 75.5527 154.128C75.3961 153.651 75.17 153.306 74.8743 153.093C74.5872 152.871 74.1784 152.748 73.6479 152.722C73.2739 152.705 73.0869 152.569 73.0869 152.313C73.0869 152.058 73.3 151.93 73.7262 151.93L78.0577 152.045C78.7274 152.045 79.6624 152.015 80.8627 151.955C81.2976 151.938 81.5934 151.93 81.7499 151.93C82.1152 151.93 82.2979 152.053 82.2979 152.3C82.2979 152.437 82.237 152.535 82.1152 152.594C82.0022 152.646 81.7108 152.705 81.2411 152.773C80.6583 152.85 80.2452 152.995 80.0016 153.208C79.7668 153.421 79.6059 153.792 79.5189 154.32C79.4406 154.848 79.4015 156.032 79.4015 157.873V165.631C79.4102 166.823 79.5189 167.535 79.7277 167.765C79.9364 167.986 80.3322 168.097 80.9149 168.097C82.3414 168.097 83.4025 167.991 84.0983 167.778C84.7942 167.556 85.4552 167.16 86.0814 166.589C86.7164 166.018 87.3948 165.06 88.1167 163.713C88.2646 163.441 88.4168 163.304 88.5734 163.304C88.8082 163.304 88.9256 163.428 88.9256 163.675C88.9256 164.229 88.6256 166.018 88.0254 169.043Z" fill="#F8F8F8"/>
<path d="M95.0915 167.663C94.5523 168.165 94.0086 168.545 93.4607 168.8C92.9127 169.047 92.3604 169.171 91.8037 169.171C90.9166 169.171 90.2294 168.911 89.7424 168.391C89.264 167.863 89.0248 167.224 89.0248 166.474C89.0248 165.895 89.1683 165.379 89.4553 164.928C89.7511 164.468 90.112 164.114 90.5382 163.867C90.9731 163.611 91.6863 163.309 92.6779 162.959C93.5129 162.67 94.0695 162.444 94.3479 162.282C94.6349 162.112 94.8741 161.869 95.0654 161.554C95.2568 161.23 95.3525 160.812 95.3525 160.301C95.3525 159.739 95.2089 159.291 94.9219 158.959C94.6349 158.618 94.2391 158.448 93.7347 158.448C93.2998 158.448 92.991 158.554 92.8083 158.767C92.6257 158.989 92.4865 159.343 92.3908 159.828C92.1908 160.8 91.6559 161.285 90.7861 161.285C90.4295 161.285 90.1251 161.183 89.8728 160.978C89.6206 160.774 89.4945 160.48 89.4945 160.097C89.4945 159.279 89.9468 158.669 90.8513 158.269C91.7646 157.86 92.8518 157.656 94.113 157.656C95.2002 157.656 96.0831 157.817 96.7615 158.141C97.4486 158.465 97.8879 158.84 98.0792 159.266C98.2706 159.692 98.3663 160.356 98.3663 161.26L98.3402 164.289C98.3402 165.882 98.3924 166.904 98.4967 167.356C98.6098 167.808 98.8446 168.033 99.2012 168.033C99.2534 168.033 99.323 168.029 99.41 168.021C99.584 168.003 99.7014 167.995 99.7623 167.995C100.119 167.995 100.297 168.093 100.297 168.289C100.297 168.417 100.223 168.527 100.075 168.621C99.9275 168.706 99.4796 168.817 98.7316 168.953C97.9923 169.09 97.3225 169.158 96.7224 169.158C96.1222 169.158 95.7091 169.047 95.4829 168.826C95.2655 168.596 95.135 168.208 95.0915 167.663ZM95.2611 162.55C95.0524 162.798 94.5523 163.126 93.7608 163.535C93.0388 163.909 92.5561 164.242 92.3126 164.531C92.069 164.83 91.9473 165.26 91.9473 165.822C91.9473 166.419 92.0734 166.875 92.3256 167.19C92.5865 167.497 92.904 167.65 93.278 167.65C93.7825 167.65 94.2522 167.424 94.6871 166.973C95.122 166.512 95.3394 165.707 95.3394 164.557C95.3394 164.199 95.3133 163.53 95.2611 162.55Z" fill="#F8F8F8"/>
<path d="M113.13 165.158C113.452 164.45 113.878 163.339 114.409 161.822C114.939 160.297 115.204 159.466 115.204 159.33C115.204 158.98 114.935 158.772 114.395 158.704C113.987 158.644 113.782 158.503 113.782 158.282C113.782 158.043 113.943 157.924 114.265 157.924C114.395 157.924 114.556 157.932 114.748 157.949C115.113 157.992 115.426 158.013 115.687 158.013C115.957 158.013 116.305 157.996 116.731 157.962C117.035 157.937 117.209 157.924 117.253 157.924C117.54 157.924 117.683 158.052 117.683 158.307C117.683 158.469 117.535 158.593 117.24 158.678C116.918 158.772 116.635 158.946 116.392 159.202C116.157 159.458 115.896 160.016 115.609 160.876L112.947 167.957C112.678 168.766 112.421 169.171 112.178 169.171C111.986 169.171 111.799 168.962 111.617 168.545L108.89 162.704L108.59 162.026L106.737 166.423C106.05 168.016 105.659 168.868 105.563 168.979C105.467 169.098 105.371 169.158 105.276 169.158C105.093 169.158 104.906 168.941 104.715 168.506C104.393 167.782 104.002 166.955 103.541 166.027L100.67 160.276C100.314 159.577 100.053 159.147 99.8875 158.985C99.7222 158.814 99.5004 158.704 99.2221 158.652C98.8916 158.593 98.7263 158.461 98.7263 158.256C98.7263 158.026 98.9047 157.911 99.2613 157.911C99.4787 157.911 99.8701 157.932 100.435 157.975C100.862 158.009 101.257 158.026 101.623 158.026C102.084 158.026 102.753 157.996 103.632 157.937C103.884 157.92 104.084 157.911 104.232 157.911C104.623 157.911 104.819 158.039 104.819 158.295C104.819 158.508 104.628 158.631 104.245 158.665C103.784 158.708 103.554 158.895 103.554 159.228C103.554 159.534 104.48 161.579 106.333 165.362C107.368 163.002 107.885 161.537 107.885 160.966C107.885 160.54 107.759 160.084 107.507 159.598C107.263 159.112 106.924 158.806 106.489 158.678C106.202 158.593 106.059 158.452 106.059 158.256C106.059 158.026 106.22 157.911 106.541 157.911C106.646 157.911 106.824 157.92 107.076 157.937C107.789 157.988 108.572 158.013 109.425 158.013C109.773 158.013 110.251 157.988 110.86 157.937C111.103 157.92 111.299 157.911 111.447 157.911C111.751 157.911 111.904 158.03 111.904 158.269C111.904 158.473 111.747 158.601 111.434 158.652C110.912 158.729 110.651 158.929 110.651 159.253C110.651 159.543 110.742 159.888 110.925 160.288C111.664 161.916 112.399 163.539 113.13 165.158Z" fill="#F8F8F8"/>
<path d="M119.779 167.957C119.779 168.63 119.518 169.362 118.996 170.155C118.483 170.956 117.826 171.603 117.026 172.098C116.226 172.6 115.686 172.852 115.408 172.852C115.217 172.852 115.121 172.737 115.121 172.506C115.121 172.387 115.212 172.268 115.395 172.149C116.16 171.629 116.708 171.096 117.039 170.551C117.369 170.006 117.535 169.584 117.535 169.286C117.535 169.039 117.339 168.868 116.947 168.775C115.895 168.519 115.369 168.003 115.369 167.228C115.369 166.751 115.573 166.359 115.982 166.052C116.391 165.737 116.839 165.579 117.326 165.579C118.074 165.579 118.67 165.822 119.113 166.308C119.557 166.794 119.779 167.343 119.779 167.957Z" fill="#F8F8F8"/>
<path d="M141.047 169.043C138.873 168.932 135.489 168.877 130.897 168.877C129.297 168.877 127.996 168.924 126.996 169.017C126.753 169.034 126.574 169.043 126.461 169.043C126.131 169.043 125.965 168.915 125.965 168.66C125.965 168.54 126.009 168.459 126.096 168.417C126.183 168.366 126.396 168.314 126.735 168.263C127.274 168.187 127.688 168.033 127.975 167.803C128.262 167.565 128.462 167.215 128.575 166.755C128.696 166.287 128.766 165.102 128.783 163.202C128.801 161.294 128.81 159.027 128.81 156.403C128.81 155.355 128.731 154.597 128.575 154.128C128.418 153.651 128.192 153.306 127.896 153.093C127.609 152.871 127.2 152.748 126.67 152.722C126.296 152.705 126.109 152.569 126.109 152.313C126.109 152.058 126.322 151.93 126.748 151.93L131.08 152.045C131.749 152.045 132.684 152.015 133.885 151.955C134.32 151.938 134.615 151.93 134.772 151.93C135.137 151.93 135.32 152.053 135.32 152.3C135.32 152.437 135.259 152.535 135.137 152.594C135.024 152.646 134.733 152.705 134.263 152.773C133.68 152.85 133.267 152.995 133.024 153.208C132.789 153.421 132.628 153.792 132.541 154.32C132.463 154.848 132.423 156.032 132.423 157.873V165.631C132.432 166.823 132.541 167.535 132.75 167.765C132.958 167.986 133.354 168.097 133.937 168.097C135.363 168.097 136.424 167.991 137.12 167.778C137.816 167.556 138.477 167.16 139.103 166.589C139.738 166.018 140.417 165.06 141.139 163.713C141.287 163.441 141.439 163.304 141.595 163.304C141.83 163.304 141.948 163.428 141.948 163.675C141.948 164.229 141.648 166.018 141.047 169.043Z" fill="#F8F8F8"/>
<path d="M156.411 169.043C154.237 168.932 150.853 168.877 146.261 168.877C144.66 168.877 143.36 168.924 142.36 169.017C142.116 169.034 141.938 169.043 141.825 169.043C141.494 169.043 141.329 168.915 141.329 168.66C141.329 168.54 141.373 168.459 141.46 168.417C141.547 168.366 141.76 168.314 142.099 168.263C142.638 168.187 143.051 168.033 143.338 167.803C143.625 167.565 143.825 167.215 143.939 166.755C144.06 166.287 144.13 165.102 144.147 163.202C144.165 161.294 144.173 159.027 144.173 156.403C144.173 155.355 144.095 154.597 143.939 154.128C143.782 153.651 143.556 153.306 143.26 153.093C142.973 152.871 142.564 152.748 142.034 152.722C141.66 152.705 141.473 152.569 141.473 152.313C141.473 152.058 141.686 151.93 142.112 151.93L146.444 152.045C147.113 152.045 148.048 152.015 149.249 151.955C149.683 151.938 149.979 151.93 150.136 151.93C150.501 151.93 150.684 152.053 150.684 152.3C150.684 152.437 150.623 152.535 150.501 152.594C150.388 152.646 150.097 152.705 149.627 152.773C149.044 152.85 148.631 152.995 148.387 153.208C148.153 153.421 147.992 153.792 147.905 154.32C147.826 154.848 147.787 156.032 147.787 157.873V165.631C147.796 166.823 147.905 167.535 148.114 167.765C148.322 167.986 148.718 168.097 149.301 168.097C150.727 168.097 151.788 167.991 152.484 167.778C153.18 167.556 153.841 167.16 154.467 166.589C155.102 166.018 155.781 165.06 156.503 163.713C156.65 163.441 156.803 163.304 156.959 163.304C157.194 163.304 157.311 163.428 157.311 163.675C157.311 164.229 157.011 166.018 156.411 169.043Z" fill="#F8F8F8"/>
<path d="M171.514 153.182C171.697 152.961 171.888 152.714 172.088 152.441C172.323 152.109 172.519 151.943 172.675 151.943C172.849 151.943 172.962 151.985 173.015 152.07C173.067 152.156 173.11 152.42 173.145 152.863L173.406 156.85L173.432 157.362C173.432 157.702 173.293 157.873 173.015 157.873C172.832 157.873 172.684 157.732 172.571 157.451C172.214 156.548 171.571 155.547 170.64 154.448C169.718 153.34 168.553 152.786 167.144 152.786C166.1 152.786 165.221 153.084 164.508 153.681C163.804 154.269 163.251 155.078 162.851 156.109C162.46 157.14 162.264 158.375 162.264 159.815C162.264 162.278 162.816 164.237 163.921 165.694C165.026 167.143 166.4 167.867 168.044 167.867C169.827 167.867 171.462 166.811 172.949 164.698C173.132 164.442 173.306 164.314 173.471 164.314C173.75 164.314 173.889 164.45 173.889 164.723C173.889 165.285 173.202 166.18 171.827 167.407C170.462 168.634 168.748 169.247 166.687 169.247C163.956 169.247 161.799 168.421 160.216 166.768C158.633 165.115 157.841 163.083 157.841 160.672C157.841 158.269 158.637 156.186 160.229 154.422C161.829 152.65 163.847 151.764 166.282 151.764C167.996 151.764 169.74 152.237 171.514 153.182Z" fill="#F8F8F8"/>
<path d="M135.695 81.3758C134.224 79.8772 133.489 78.47 133.489 77.1542C133.489 76.1126 133.882 75.2079 134.667 74.4404C135.453 73.6728 136.422 73.2891 137.573 73.2891C138.633 73.2891 139.487 73.5906 140.136 74.1937C140.794 74.7876 141.123 75.4547 141.123 76.1948C141.123 77.3278 140.378 78.5431 138.889 79.8407C140.616 81.2113 142.229 83.2124 143.727 85.844C144.504 84.583 144.892 83.3723 144.892 82.2119C144.892 81.2433 144.422 80.7224 143.481 80.6493C143.097 80.6128 142.905 80.4757 142.905 80.2382C142.905 79.9914 143.165 79.8681 143.686 79.8681L146.427 79.9229C146.966 79.9229 147.592 79.8955 148.305 79.8407C148.643 79.8133 148.872 79.7996 148.99 79.7996C149.31 79.7996 149.47 79.9275 149.47 80.1833C149.47 80.3661 149.287 80.5031 148.922 80.5945C148.319 80.7499 147.857 80.9509 147.538 81.1976C147.218 81.4443 146.971 81.7139 146.797 82.0063C146.624 82.2895 146.213 83.1028 145.564 84.446C145.144 85.2958 144.705 86.0451 144.248 86.6938C145.409 89.0696 146.482 90.2575 147.469 90.2575C147.871 90.2575 148.305 90.1021 148.771 89.7914C149.027 89.6178 149.201 89.531 149.292 89.531C149.557 89.531 149.689 89.6589 149.689 89.9148C149.689 90.1706 149.201 90.5727 148.223 91.1209C147.254 91.6692 146.309 91.9433 145.386 91.9433C144.664 91.9433 144.038 91.7195 143.508 91.2717C142.978 90.824 142.448 90.1661 141.918 89.298C139.762 91.0707 137.756 91.957 135.901 91.957C134.475 91.957 133.306 91.5458 132.392 90.7235C131.478 89.9011 131.021 88.8046 131.021 87.434C131.021 86.6573 131.241 85.8349 131.679 84.9668C132.118 84.0988 133.457 82.9017 135.695 81.3758ZM138.162 79.1691C139.049 78.2919 139.492 77.3781 139.492 76.4278C139.492 75.6968 139.282 75.1394 138.861 74.7556C138.441 74.3719 137.98 74.18 137.477 74.18C137.048 74.18 136.673 74.3444 136.353 74.6734C136.033 75.0023 135.874 75.4227 135.874 75.9344C135.874 76.8938 136.636 77.972 138.162 79.1691ZM136.312 82.0337C134.978 83.121 134.311 84.3089 134.311 85.5973C134.311 86.6116 134.658 87.5893 135.353 88.5305C136.056 89.4625 136.97 89.9285 138.094 89.9285C139.117 89.9285 140.241 89.4396 141.466 88.4619C140.122 85.9491 138.405 83.8064 136.312 82.0337Z" fill="#F8F8F8"/>
</svg>
