<svg width="354" height="38" viewBox="0 0 354 38" fill="none" xmlns="http://www.w3.org/2000/svg">
<path d="M15.1038 13.5087C16.9211 13.7645 18.4153 14.3164 19.5865 15.1645C20.7711 15.9991 21.6595 17.6683 22.2518 20.1722C22.8037 22.5145 23.396 24.0625 24.0287 24.8164C24.6614 25.5568 25.5499 25.9606 26.6941 26.0279C27.3268 26.0683 27.6431 26.2702 27.6431 26.6337C27.6431 27.0241 27.1316 27.2192 26.1085 27.2192L18.3345 27.0375C17.5268 26.2298 16.9749 24.7895 16.6788 22.7164C16.3019 20.0645 15.9115 18.1933 15.5076 17.1029C15.1038 16.0126 14.498 15.2318 13.6903 14.7607C12.8826 14.2895 11.9471 14.0539 10.8836 14.0539C10.574 14.0539 10.15 14.0741 9.6115 14.1145C9.6115 18.8529 9.62496 21.7741 9.65188 22.8779C9.69226 23.9683 9.91438 24.7558 10.3182 25.2404C10.7221 25.7116 11.4894 25.9741 12.6201 26.0279C13.2259 26.0683 13.5288 26.2702 13.5288 26.6337C13.5288 26.9971 13.2663 27.1789 12.7413 27.1789L6.54228 27.0173C5.70767 27.0173 4.63748 27.051 3.33172 27.1183C2.13364 27.1856 1.37307 27.2192 1.05 27.2192C0.498075 27.2192 0.222114 27.0241 0.222114 26.6337C0.222114 26.2568 0.464421 26.0683 0.949034 26.0683C1.70288 26.0683 2.39614 25.8798 3.02883 25.5029C3.67498 25.126 3.99806 23.5308 3.99806 20.7174L3.97787 16.9616L3.99806 9.7126C3.99806 5.97031 3.82979 3.68859 3.49325 2.86744C3.17018 2.03283 2.28845 1.60206 0.848073 1.57514C0.282691 1.56167 0 1.36648 0 0.989561C0 0.599179 0.376921 0.403987 1.13076 0.403987C4.9269 0.403987 8.14419 0.323218 10.7826 0.161681C11.9538 0.0809118 13.0105 0.0405273 13.9528 0.0405273C17.0086 0.0405273 19.4047 0.653025 21.1413 1.87802C22.8778 3.08955 23.746 4.67801 23.746 6.64338C23.746 7.96261 23.3355 9.14722 22.5143 10.1972C21.6932 11.2472 20.6634 12.028 19.4249 12.5395C18.1999 13.051 16.7595 13.3741 15.1038 13.5087ZM9.6115 12.6607C9.96149 12.6741 10.224 12.6809 10.399 12.6809C11.5701 12.6809 12.748 12.4655 13.9326 12.0347C15.1307 11.5905 15.972 10.8905 16.4567 9.93471C16.9547 8.96549 17.2038 7.93568 17.2038 6.8453C17.2038 5.16262 16.7057 3.85013 15.7095 2.90782C14.7134 1.96552 13.4278 1.49437 11.8528 1.49437C11.1932 1.49437 10.4461 1.61552 9.6115 1.85783V12.6607Z" fill="#CE571B"/>
<path d="M36.5196 22.5952L38.1754 17.9914C39.0773 15.4472 39.5283 13.7039 39.5283 12.7616C39.5283 11.6443 38.8956 10.9982 37.6302 10.8232C37.0648 10.7289 36.7821 10.5337 36.7821 10.2376C36.7821 9.86067 37.0581 9.67221 37.61 9.67221C37.8254 9.67221 38.2158 9.70587 38.7812 9.77318C39.3735 9.84048 40.0735 9.87414 40.8812 9.87414C41.4196 9.87414 42.0725 9.83375 42.8398 9.75298C43.486 9.67221 43.8562 9.63183 43.9504 9.63183C44.5965 9.63183 44.9196 9.83375 44.9196 10.2376C44.9196 10.4664 44.711 10.6347 44.2936 10.7424C43.2571 11.0251 42.4898 11.6039 41.9917 12.4789C41.4937 13.3405 40.4437 16.0462 38.8417 20.5962C36.7552 26.5058 35.2408 30.4567 34.2985 32.449C33.3697 34.4413 32.3331 35.8615 31.1889 36.7096C30.0581 37.5577 28.8466 37.9817 27.5543 37.9817C26.3966 37.9817 25.488 37.6923 24.8284 37.1134C24.1822 36.5481 23.8591 35.8144 23.8591 34.9125C23.8591 34.3336 24.088 33.7817 24.5457 33.2567C25.0168 32.7452 25.6293 32.4894 26.3832 32.4894C27.5947 32.4894 28.362 33.2096 28.6851 34.65C28.8601 35.3769 29.1293 35.7404 29.4928 35.7404C30.4081 35.7404 31.3908 34.8048 32.4408 32.9336C33.5043 31.076 34.036 29.6894 34.036 28.774C34.036 28.3164 33.612 27.0846 32.7639 25.0789C31.9293 23.0597 30.7985 20.4481 29.3716 17.2443C27.9581 14.0405 27.0562 12.203 26.6658 11.7318C26.2755 11.2472 25.8245 10.9443 25.313 10.8232C24.788 10.7155 24.5255 10.527 24.5255 10.2578C24.5255 9.86741 24.8687 9.67221 25.5553 9.67221C25.7168 9.67221 26.262 9.71933 27.1908 9.81356C27.7562 9.88087 28.4831 9.91452 29.3716 9.91452C30.8389 9.91452 32.1245 9.86067 33.2283 9.75298L34.0966 9.67221C34.635 9.67221 34.9043 9.85394 34.9043 10.2174C34.9043 10.5674 34.5812 10.803 33.935 10.9241C33.5043 11.0049 33.1677 11.1934 32.9254 11.4895C32.6831 11.7722 32.562 12.0482 32.562 12.3174C32.562 12.6135 32.9187 13.7376 33.6322 15.6895C34.3591 17.6414 35.3216 19.9433 36.5196 22.5952Z" fill="#CE571B"/>
<path d="M53.0894 25.1193C52.2548 25.9135 51.4134 26.5125 50.5653 26.9164C49.7173 27.3067 48.8625 27.5019 48.0009 27.5019C46.6279 27.5019 45.5644 27.0914 44.8106 26.2702C44.0702 25.4356 43.7 24.426 43.7 23.2414C43.7 22.326 43.9221 21.5116 44.3663 20.7981C44.824 20.0712 45.3827 19.5126 46.0423 19.1222C46.7154 18.7183 47.8192 18.2404 49.3538 17.6885C50.6461 17.2308 51.5077 16.8741 51.9384 16.6183C52.3826 16.3491 52.7528 15.9655 53.049 15.4674C53.3451 14.9558 53.4932 14.2962 53.4932 13.4885C53.4932 12.6001 53.2711 11.8934 52.8269 11.3684C52.3826 10.8299 51.7702 10.5607 50.9894 10.5607C50.3163 10.5607 49.8384 10.7289 49.5557 11.0655C49.273 11.4155 49.0577 11.9741 48.9096 12.7414C48.6 14.276 47.7721 15.0433 46.4259 15.0433C45.874 15.0433 45.4029 14.8818 45.0125 14.5587C44.6221 14.2357 44.4269 13.7712 44.4269 13.1655C44.4269 11.8732 45.1269 10.9107 46.5269 10.278C47.9404 9.63183 49.623 9.30875 51.575 9.30875C53.2576 9.30875 54.624 9.56452 55.674 10.0761C56.7374 10.5876 57.4172 11.1799 57.7134 11.853C58.0095 12.526 58.1576 13.576 58.1576 15.003L58.1172 19.7885C58.1172 22.3058 58.198 23.9212 58.3595 24.6346C58.5345 25.3481 58.898 25.7048 59.4499 25.7048C59.5307 25.7048 59.6384 25.6981 59.773 25.6846C60.0422 25.6577 60.224 25.6443 60.3182 25.6443C60.8701 25.6443 61.1461 25.7991 61.1461 26.1087C61.1461 26.3106 61.0317 26.4856 60.8028 26.6337C60.574 26.7683 59.8807 26.9433 58.723 27.1587C57.5788 27.3741 56.5422 27.4817 55.6134 27.4817C54.6846 27.4817 54.0451 27.3067 53.6951 26.9568C53.3586 26.5933 53.1567 25.9808 53.0894 25.1193ZM53.3519 17.0424C53.0288 17.4328 52.2548 17.951 51.0298 18.5972C49.9125 19.1895 49.1654 19.7145 48.7884 20.1722C48.4115 20.6433 48.2231 21.3231 48.2231 22.2116C48.2231 23.1539 48.4182 23.8741 48.8086 24.3721C49.2125 24.8568 49.7038 25.0991 50.2827 25.0991C51.0634 25.0991 51.7903 24.7423 52.4634 24.0289C53.1365 23.302 53.473 22.0299 53.473 20.2126C53.473 19.6472 53.4326 18.5904 53.3519 17.0424Z" fill="#CE571B"/>
<path d="M68.0235 13.2462C68.9389 11.9539 69.9283 10.9847 70.9918 10.3386C72.0687 9.69241 73.2197 9.36933 74.4447 9.36933C75.4677 9.36933 76.4033 9.63183 77.2514 10.1568C78.0995 10.6818 78.6716 11.3078 78.9677 12.0347C79.2773 12.7616 79.4321 13.7914 79.4321 15.1241L79.2504 23.1808C79.2504 24.2846 79.3514 25.0183 79.5533 25.3818C79.7552 25.7452 80.1793 25.9808 80.8254 26.0885C81.3639 26.1827 81.6331 26.3981 81.6331 26.7346C81.6331 27.0846 81.3706 27.2596 80.8456 27.2596C80.4014 27.2596 79.4254 27.2058 77.9177 27.0981C77.3927 27.0712 76.9687 27.0577 76.6456 27.0577C76.336 27.0577 75.4475 27.1183 73.9802 27.2394H72.9908C72.4389 27.2394 72.1629 27.0577 72.1629 26.6943C72.1629 26.3981 72.412 26.2029 72.9101 26.1087C73.3678 26.0144 73.7312 25.8596 74.0004 25.6443C74.2697 25.4289 74.4447 24.3721 74.5254 22.4741C74.6197 20.576 74.6668 18.6914 74.6668 16.8203C74.6668 14.7472 74.4985 13.327 74.162 12.5597C73.8389 11.7924 73.2129 11.4087 72.2841 11.4087C71.1399 11.4087 70.0764 12.2501 69.0937 13.9328C68.1245 15.602 67.6399 18.1731 67.6399 21.6462C67.6399 22.9923 67.7072 23.9683 67.8418 24.5741C67.9764 25.1798 68.138 25.5635 68.3264 25.725C68.5284 25.8731 68.9457 26.001 69.5783 26.1087C69.9553 26.176 70.1437 26.3712 70.1437 26.6943C70.1437 27.0712 69.8678 27.2596 69.3158 27.2596C69.0466 27.2596 68.7505 27.2462 68.4274 27.2192C67.1351 27.0981 66.4351 27.0375 66.3274 27.0375C64.3889 27.0375 62.8005 27.1048 61.562 27.2394C61.3601 27.2664 61.1986 27.2798 61.0774 27.2798C60.5793 27.2798 60.3303 27.0846 60.3303 26.6943C60.3303 26.3577 60.5524 26.1625 60.9967 26.1087C61.6832 26.0279 62.1476 25.8394 62.3899 25.5433C62.6322 25.2471 62.8072 24.325 62.9149 22.777C63.0361 21.2154 63.0966 19.3577 63.0966 17.2039C63.0966 14.4578 62.9957 12.7616 62.7938 12.1155C62.5918 11.4559 62.1072 10.978 61.3399 10.6818C60.788 10.4664 60.512 10.2578 60.512 10.0559C60.512 9.73279 60.9092 9.57125 61.7034 9.57125C63.938 9.57125 65.7486 9.48375 67.1351 9.30875C67.6466 10.4799 67.9428 11.7924 68.0235 13.2462Z" fill="#CE571B"/>
<path d="M123.26 13.5086C125.077 13.7644 126.571 14.3163 127.742 15.1644C128.927 15.999 129.815 17.6682 130.408 20.172C130.96 22.5143 131.552 24.0624 132.184 24.8162C132.817 25.5566 133.706 25.9605 134.85 26.0278C135.483 26.0682 135.799 26.2701 135.799 26.6335C135.799 27.0239 135.287 27.2191 134.264 27.2191L126.49 27.0374C125.683 26.2297 125.131 24.7893 124.835 22.7162C124.458 20.0643 124.067 18.1932 123.663 17.1028C123.26 16.0124 122.654 15.2317 121.846 14.7605C121.038 14.2894 120.103 14.0538 119.039 14.0538C118.73 14.0538 118.306 14.074 117.767 14.1144C117.767 18.8528 117.781 21.7739 117.808 22.8778C117.848 23.9682 118.07 24.7557 118.474 25.2403C118.878 25.7114 119.645 25.9739 120.776 26.0278C121.382 26.0682 121.685 26.2701 121.685 26.6335C121.685 26.997 121.422 27.1787 120.897 27.1787L114.698 27.0172C113.863 27.0172 112.793 27.0508 111.487 27.1181C110.289 27.1855 109.529 27.2191 109.206 27.2191C108.654 27.2191 108.378 27.0239 108.378 26.6335C108.378 26.2566 108.62 26.0682 109.105 26.0682C109.859 26.0682 110.552 25.8797 111.185 25.5028C111.831 25.1258 112.154 23.5307 112.154 20.7172L112.134 16.9615L112.154 9.71246C112.154 5.97017 111.986 3.68845 111.649 2.86729C111.326 2.03268 110.444 1.60192 109.004 1.57499C108.438 1.56153 108.156 1.36634 108.156 0.989419C108.156 0.599036 108.533 0.403844 109.287 0.403844C113.083 0.403844 116.3 0.323075 118.938 0.161538C120.11 0.0807689 121.166 0.0403844 122.109 0.0403844C125.164 0.0403844 127.56 0.652882 129.297 1.87788C131.034 3.08941 131.902 4.67786 131.902 6.64324C131.902 7.96246 131.491 9.14707 130.67 10.1971C129.849 11.2471 128.819 12.0278 127.581 12.5394C126.356 13.0509 124.915 13.374 123.26 13.5086ZM117.767 12.6605C118.117 12.674 118.38 12.6807 118.555 12.6807C119.726 12.6807 120.904 12.4653 122.088 12.0346C123.286 11.5903 124.128 10.8903 124.612 9.93457C125.11 8.96534 125.36 7.93554 125.36 6.84516C125.36 5.16248 124.861 3.84998 123.865 2.90768C122.869 1.96538 121.584 1.49422 120.009 1.49422C119.349 1.49422 118.602 1.61538 117.767 1.85768V12.6605Z" fill="#CE571B"/>
<path d="M144.675 22.5951L146.331 17.9913C147.233 15.447 147.684 13.7038 147.684 12.7615C147.684 11.6442 147.051 10.998 145.786 10.823C145.221 10.7288 144.938 10.5336 144.938 10.2375C144.938 9.86053 145.214 9.67207 145.766 9.67207C145.981 9.67207 146.372 9.70573 146.937 9.77303C147.529 9.84034 148.229 9.87399 149.037 9.87399C149.575 9.87399 150.228 9.83361 150.996 9.75284C151.642 9.67207 152.012 9.63169 152.106 9.63169C152.752 9.63169 153.075 9.83361 153.075 10.2375C153.075 10.4663 152.867 10.6346 152.449 10.7423C151.413 11.025 150.646 11.6038 150.147 12.4788C149.649 13.3403 148.599 16.0461 146.998 20.5961C144.911 26.5057 143.397 30.4566 142.454 32.4489C141.525 34.4412 140.489 35.8614 139.345 36.7094C138.214 37.5575 137.002 37.9816 135.71 37.9816C134.552 37.9816 133.644 37.6921 132.984 37.1133C132.338 36.5479 132.015 35.8143 132.015 34.9123C132.015 34.3335 132.244 33.7816 132.701 33.2566C133.173 32.745 133.785 32.4893 134.539 32.4893C135.75 32.4893 136.518 33.2095 136.841 34.6498C137.016 35.3768 137.285 35.7402 137.649 35.7402C138.564 35.7402 139.547 34.8047 140.597 32.9335C141.66 31.0758 142.192 29.6893 142.192 28.7739C142.192 28.3162 141.768 27.0845 140.92 25.0787C140.085 23.0595 138.954 20.448 137.527 17.2442C136.114 14.0403 135.212 12.2028 134.822 11.7317C134.431 11.2471 133.98 10.9442 133.469 10.823C132.944 10.7153 132.681 10.5269 132.681 10.2576C132.681 9.86726 133.024 9.67207 133.711 9.67207C133.873 9.67207 134.418 9.71919 135.347 9.81342C135.912 9.88072 136.639 9.91438 137.527 9.91438C138.995 9.91438 140.28 9.86053 141.384 9.75284L142.252 9.67207C142.791 9.67207 143.06 9.8538 143.06 10.2173C143.06 10.5673 142.737 10.8028 142.091 10.924C141.66 11.0048 141.323 11.1932 141.081 11.4894C140.839 11.7721 140.718 12.048 140.718 12.3173C140.718 12.6134 141.074 13.7374 141.788 15.6894C142.515 17.6413 143.477 19.9432 144.675 22.5951Z" fill="#CE571B"/>
<path d="M161.245 25.1191C160.411 25.9133 159.569 26.5124 158.721 26.9162C157.873 27.3066 157.018 27.5018 156.157 27.5018C154.784 27.5018 153.72 27.0912 152.966 26.2701C152.226 25.4355 151.856 24.4259 151.856 23.2412C151.856 22.3259 152.078 21.5114 152.522 20.798C152.98 20.0711 153.538 19.5124 154.198 19.122C154.871 18.7182 155.975 18.2403 157.51 17.6884C158.802 17.2307 159.663 16.874 160.094 16.6182C160.538 16.349 160.909 15.9653 161.205 15.4672C161.501 14.9557 161.649 14.2961 161.649 13.4884C161.649 12.5999 161.427 11.8932 160.983 11.3682C160.538 10.8298 159.926 10.5605 159.145 10.5605C158.472 10.5605 157.994 10.7288 157.712 11.0653C157.429 11.4153 157.213 11.974 157.065 12.7413C156.756 14.2759 155.928 15.0432 154.582 15.0432C154.03 15.0432 153.559 14.8817 153.168 14.5586C152.778 14.2355 152.583 13.7711 152.583 13.1653C152.583 11.873 153.283 10.9105 154.683 10.2778C156.096 9.63169 157.779 9.30861 159.731 9.30861C161.413 9.30861 162.78 9.56438 163.83 10.0759C164.893 10.5875 165.573 11.1798 165.869 11.8528C166.165 12.5259 166.313 13.5759 166.313 15.0028L166.273 19.7884C166.273 22.3057 166.354 23.921 166.515 24.6345C166.69 25.348 167.054 25.7047 167.606 25.7047C167.686 25.7047 167.794 25.698 167.929 25.6845C168.198 25.6576 168.38 25.6441 168.474 25.6441C169.026 25.6441 169.302 25.7989 169.302 26.1085C169.302 26.3105 169.187 26.4855 168.959 26.6335C168.73 26.7682 168.036 26.9431 166.879 27.1585C165.735 27.3739 164.698 27.4816 163.769 27.4816C162.84 27.4816 162.201 27.3066 161.851 26.9566C161.514 26.5932 161.312 25.9807 161.245 25.1191ZM161.508 17.0422C161.185 17.4326 160.411 17.9509 159.186 18.597C158.068 19.1893 157.321 19.7143 156.944 20.172C156.567 20.6432 156.379 21.323 156.379 22.2114C156.379 23.1537 156.574 23.8739 156.964 24.372C157.368 24.8566 157.86 25.0989 158.438 25.0989C159.219 25.0989 159.946 24.7422 160.619 24.0287C161.292 23.3018 161.629 22.0297 161.629 20.2124C161.629 19.647 161.588 18.5903 161.508 17.0422Z" fill="#CE571B"/>
<path d="M176.179 13.2461C177.095 11.9538 178.084 10.9846 179.148 10.3384C180.224 9.69226 181.375 9.36919 182.6 9.36919C183.624 9.36919 184.559 9.63169 185.407 10.1567C186.255 10.6817 186.827 11.3076 187.123 12.0346C187.433 12.7615 187.588 13.7913 187.588 15.124L187.406 23.1807C187.406 24.2845 187.507 25.0182 187.709 25.3816C187.911 25.7451 188.335 25.9807 188.981 26.0883C189.52 26.1826 189.789 26.398 189.789 26.7345C189.789 27.0845 189.526 27.2595 189.001 27.2595C188.557 27.2595 187.581 27.2056 186.073 27.098C185.548 27.071 185.124 27.0576 184.801 27.0576C184.492 27.0576 183.603 27.1181 182.136 27.2393H181.147C180.595 27.2393 180.319 27.0576 180.319 26.6941C180.319 26.398 180.568 26.2028 181.066 26.1085C181.524 26.0143 181.887 25.8595 182.156 25.6441C182.425 25.4287 182.6 24.372 182.681 22.4739C182.775 20.5759 182.823 18.6913 182.823 16.8201C182.823 14.747 182.654 13.3269 182.318 12.5596C181.995 11.7923 181.369 11.4086 180.44 11.4086C179.296 11.4086 178.232 12.2499 177.249 13.9326C176.28 15.6019 175.796 18.173 175.796 21.6461C175.796 22.9922 175.863 23.9682 175.998 24.5739C176.132 25.1797 176.294 25.5633 176.482 25.7249C176.684 25.873 177.101 26.0008 177.734 26.1085C178.111 26.1758 178.299 26.371 178.299 26.6941C178.299 27.071 178.024 27.2595 177.472 27.2595C177.202 27.2595 176.906 27.246 176.583 27.2191C175.291 27.098 174.591 27.0374 174.483 27.0374C172.545 27.0374 170.956 27.1047 169.718 27.2393C169.516 27.2662 169.354 27.2797 169.233 27.2797C168.735 27.2797 168.486 27.0845 168.486 26.6941C168.486 26.3576 168.708 26.1624 169.152 26.1085C169.839 26.0278 170.303 25.8393 170.546 25.5432C170.788 25.247 170.963 24.3249 171.071 22.7768C171.192 21.2153 171.252 19.3576 171.252 17.2038C171.252 14.4576 171.151 12.7615 170.95 12.1153C170.748 11.4557 170.263 10.9778 169.496 10.6817C168.944 10.4663 168.668 10.2576 168.668 10.0557C168.668 9.73265 169.065 9.57111 169.859 9.57111C172.094 9.57111 173.904 9.48361 175.291 9.30861C175.802 10.4798 176.099 11.7923 176.179 13.2461Z" fill="#CE571B"/>
<path d="M221.111 27.2999C217.746 27.1249 212.509 27.0374 205.401 27.0374C202.925 27.0374 200.912 27.1114 199.364 27.2595C198.987 27.2864 198.711 27.2999 198.536 27.2999C198.025 27.2999 197.769 27.098 197.769 26.6941C197.769 26.5057 197.836 26.3778 197.971 26.3105C198.105 26.2297 198.435 26.1489 198.96 26.0682C199.795 25.947 200.434 25.7047 200.878 25.3412C201.323 24.9643 201.632 24.4124 201.807 23.6855C201.996 22.9451 202.103 21.0739 202.13 18.072C202.157 15.0567 202.171 11.4759 202.171 7.32977C202.171 5.67401 202.05 4.47594 201.807 3.73556C201.565 2.98172 201.215 2.43653 200.757 2.09999C200.313 1.74999 199.68 1.5548 198.859 1.51442C198.28 1.48749 197.991 1.27211 197.991 0.868265C197.991 0.464421 198.321 0.262499 198.98 0.262499L205.684 0.444229C206.721 0.444229 208.168 0.397114 210.025 0.302883C210.699 0.27596 211.156 0.262499 211.399 0.262499C211.964 0.262499 212.247 0.45769 212.247 0.848073C212.247 1.06346 212.152 1.21826 211.964 1.31249C211.789 1.39326 211.338 1.48749 210.611 1.59519C209.709 1.71634 209.07 1.94518 208.693 2.28172C208.329 2.61826 208.08 3.20383 207.946 4.03844C207.825 4.87305 207.764 6.7442 207.764 9.65188V21.9086C207.777 23.7932 207.946 24.9172 208.269 25.2807C208.592 25.6307 209.204 25.8057 210.106 25.8057C212.314 25.8057 213.956 25.6374 215.033 25.3008C216.11 24.9508 217.133 24.3249 218.102 23.423C219.085 22.5211 220.135 21.0066 221.252 18.8797C221.481 18.449 221.717 18.2336 221.959 18.2336C222.323 18.2336 222.504 18.4288 222.504 18.8191C222.504 19.6941 222.04 22.5211 221.111 27.2999Z" fill="#CE571B"/>
<path d="M232.047 25.1191C231.213 25.9133 230.371 26.5124 229.523 26.9162C228.675 27.3066 227.82 27.5018 226.959 27.5018C225.586 27.5018 224.522 27.0912 223.768 26.2701C223.028 25.4355 222.658 24.4259 222.658 23.2412C222.658 22.3259 222.88 21.5114 223.324 20.798C223.782 20.0711 224.34 19.5124 225 19.122C225.673 18.7182 226.777 18.2403 228.312 17.6884C229.604 17.2307 230.465 16.874 230.896 16.6182C231.34 16.349 231.711 15.9653 232.007 15.4672C232.303 14.9557 232.451 14.2961 232.451 13.4884C232.451 12.5999 232.229 11.8932 231.785 11.3682C231.34 10.8298 230.728 10.5605 229.947 10.5605C229.274 10.5605 228.796 10.7288 228.513 11.0653C228.231 11.4153 228.015 11.974 227.867 12.7413C227.558 14.2759 226.73 15.0432 225.384 15.0432C224.832 15.0432 224.361 14.8817 223.97 14.5586C223.58 14.2355 223.385 13.7711 223.385 13.1653C223.385 11.873 224.085 10.9105 225.485 10.2778C226.898 9.63169 228.581 9.30861 230.533 9.30861C232.215 9.30861 233.582 9.56438 234.632 10.0759C235.695 10.5875 236.375 11.1798 236.671 11.8528C236.967 12.5259 237.115 13.5759 237.115 15.0028L237.075 19.7884C237.075 22.3057 237.156 23.921 237.317 24.6345C237.492 25.348 237.856 25.7047 238.408 25.7047C238.488 25.7047 238.596 25.698 238.731 25.6845C239 25.6576 239.182 25.6441 239.276 25.6441C239.828 25.6441 240.104 25.7989 240.104 26.1085C240.104 26.3105 239.989 26.4855 239.761 26.6335C239.532 26.7682 238.838 26.9431 237.681 27.1585C236.537 27.3739 235.5 27.4816 234.571 27.4816C233.642 27.4816 233.003 27.3066 232.653 26.9566C232.316 26.5932 232.114 25.9807 232.047 25.1191ZM232.31 17.0422C231.987 17.4326 231.213 17.9509 229.988 18.597C228.87 19.1893 228.123 19.7143 227.746 20.172C227.369 20.6432 227.181 21.323 227.181 22.2114C227.181 23.1537 227.376 23.8739 227.766 24.372C228.17 24.8566 228.662 25.0989 229.24 25.0989C230.021 25.0989 230.748 24.7422 231.421 24.0287C232.094 23.3018 232.431 22.0297 232.431 20.2124C232.431 19.647 232.39 18.5903 232.31 17.0422Z" fill="#CE571B"/>
<path d="M259.965 21.1614C260.463 20.0441 261.123 18.2874 261.944 15.8913C262.765 13.4817 263.175 12.1692 263.175 11.9538C263.175 11.4019 262.758 11.0721 261.924 10.9644C261.291 10.8701 260.975 10.648 260.975 10.298C260.975 9.92111 261.224 9.73265 261.722 9.73265C261.924 9.73265 262.173 9.74611 262.469 9.77303C263.034 9.84034 263.519 9.87399 263.923 9.87399C264.34 9.87399 264.878 9.84707 265.538 9.79323C266.009 9.75284 266.278 9.73265 266.346 9.73265C266.79 9.73265 267.012 9.93457 267.012 10.3384C267.012 10.5942 266.783 10.7894 266.325 10.924C265.827 11.0721 265.39 11.348 265.013 11.7519C264.649 12.1557 264.246 13.0374 263.801 14.3971L259.682 25.5835C259.265 26.8624 258.868 27.5018 258.491 27.5018C258.195 27.5018 257.905 27.172 257.623 26.5124L253.402 17.2845L252.938 16.2144L250.071 23.1605C249.007 25.6778 248.401 27.0239 248.253 27.1989C248.105 27.3874 247.957 27.4816 247.809 27.4816C247.526 27.4816 247.237 27.1383 246.941 26.4518C246.443 25.3076 245.837 24.0018 245.124 22.5345L240.681 13.448C240.129 12.3442 239.726 11.6644 239.47 11.4086C239.214 11.1394 238.871 10.9644 238.44 10.8836C237.928 10.7894 237.673 10.5807 237.673 10.2576C237.673 9.89419 237.949 9.71246 238.501 9.71246C238.837 9.71246 239.443 9.74611 240.318 9.81342C240.977 9.86726 241.59 9.89419 242.155 9.89419C242.869 9.89419 243.905 9.84707 245.265 9.75284C245.655 9.72592 245.965 9.71246 246.194 9.71246C246.8 9.71246 247.102 9.91438 247.102 10.3182C247.102 10.6548 246.806 10.85 246.214 10.9038C245.501 10.9711 245.144 11.2673 245.144 11.7923C245.144 12.2769 246.577 15.5076 249.445 21.4845C251.047 17.7557 251.848 15.4403 251.848 14.5384C251.848 13.8653 251.652 13.1451 251.262 12.3778C250.885 11.6105 250.36 11.1259 249.687 10.924C249.243 10.7894 249.021 10.5673 249.021 10.2576C249.021 9.89419 249.27 9.71246 249.768 9.71246C249.929 9.71246 250.205 9.72592 250.596 9.75284C251.7 9.83361 252.911 9.87399 254.23 9.87399C254.769 9.87399 255.509 9.83361 256.451 9.75284C256.828 9.72592 257.131 9.71246 257.36 9.71246C257.831 9.71246 258.067 9.90092 258.067 10.2778C258.067 10.6009 257.825 10.8028 257.34 10.8836C256.532 11.0048 256.128 11.3211 256.128 11.8326C256.128 12.2903 256.27 12.8355 256.552 13.4682C257.697 16.0394 258.834 18.6038 259.965 21.1614Z" fill="#CE571B"/>
<path d="M270.255 25.5835C270.255 26.647 269.851 27.8047 269.043 29.0566C268.249 30.322 267.233 31.3451 265.994 32.1258C264.756 32.92 263.921 33.3172 263.49 33.3172C263.194 33.3172 263.046 33.1354 263.046 32.772C263.046 32.5835 263.188 32.395 263.47 32.2066C264.655 31.3854 265.503 30.5441 266.014 29.6826C266.526 28.821 266.782 28.1547 266.782 27.6835C266.782 27.2931 266.479 27.0239 265.873 26.8758C264.244 26.472 263.43 25.6576 263.43 24.4326C263.43 23.6787 263.746 23.0595 264.379 22.5749C265.012 22.0768 265.705 21.8278 266.459 21.8278C267.616 21.8278 268.538 22.2114 269.225 22.9787C269.912 23.746 270.255 24.6143 270.255 25.5835Z" fill="#CE571B"/>
<path d="M303.172 27.2999C299.807 27.1249 294.57 27.0374 287.463 27.0374C284.986 27.0374 282.973 27.1114 281.425 27.2595C281.048 27.2864 280.772 27.2999 280.597 27.2999C280.086 27.2999 279.83 27.098 279.83 26.6941C279.83 26.5057 279.897 26.3778 280.032 26.3105C280.167 26.2297 280.496 26.1489 281.021 26.0682C281.856 25.947 282.495 25.7047 282.94 25.3412C283.384 24.9643 283.693 24.4124 283.868 23.6855C284.057 22.9451 284.165 21.0739 284.192 18.072C284.218 15.0567 284.232 11.4759 284.232 7.32977C284.232 5.67401 284.111 4.47594 283.868 3.73556C283.626 2.98172 283.276 2.43653 282.818 2.09999C282.374 1.74999 281.742 1.5548 280.92 1.51442C280.342 1.48749 280.052 1.27211 280.052 0.868265C280.052 0.464421 280.382 0.262499 281.042 0.262499L287.745 0.444229C288.782 0.444229 290.229 0.397114 292.087 0.302883C292.76 0.27596 293.217 0.262499 293.46 0.262499C294.025 0.262499 294.308 0.45769 294.308 0.848073C294.308 1.06346 294.214 1.21826 294.025 1.31249C293.85 1.39326 293.399 1.48749 292.672 1.59519C291.77 1.71634 291.131 1.94518 290.754 2.28172C290.391 2.61826 290.141 3.20383 290.007 4.03844C289.886 4.87305 289.825 6.7442 289.825 9.65188V21.9086C289.839 23.7932 290.007 24.9172 290.33 25.2807C290.653 25.6307 291.266 25.8057 292.167 25.8057C294.375 25.8057 296.017 25.6374 297.094 25.3008C298.171 24.9508 299.194 24.3249 300.164 23.423C301.146 22.5211 302.196 21.0066 303.314 18.8797C303.542 18.449 303.778 18.2336 304.02 18.2336C304.384 18.2336 304.565 18.4288 304.565 18.8191C304.565 19.6941 304.101 22.5211 303.172 27.2999Z" fill="#CE571B"/>
<path d="M326.951 27.2999C323.585 27.1249 318.349 27.0374 311.241 27.0374C308.764 27.0374 306.752 27.1114 305.204 27.2595C304.827 27.2864 304.551 27.2999 304.376 27.2999C303.864 27.2999 303.608 27.098 303.608 26.6941C303.608 26.5057 303.676 26.3778 303.81 26.3105C303.945 26.2297 304.275 26.1489 304.8 26.0682C305.634 25.947 306.274 25.7047 306.718 25.3412C307.162 24.9643 307.472 24.4124 307.647 23.6855C307.835 22.9451 307.943 21.0739 307.97 18.072C307.997 15.0567 308.01 11.4759 308.01 7.32977C308.01 5.67401 307.889 4.47594 307.647 3.73556C307.404 2.98172 307.054 2.43653 306.597 2.09999C306.153 1.74999 305.52 1.5548 304.699 1.51442C304.12 1.48749 303.83 1.27211 303.83 0.868265C303.83 0.464421 304.16 0.262499 304.82 0.262499L311.524 0.444229C312.56 0.444229 314.007 0.397114 315.865 0.302883C316.538 0.27596 316.996 0.262499 317.238 0.262499C317.803 0.262499 318.086 0.45769 318.086 0.848073C318.086 1.06346 317.992 1.21826 317.803 1.31249C317.628 1.39326 317.178 1.48749 316.451 1.59519C315.549 1.71634 314.909 1.94518 314.532 2.28172C314.169 2.61826 313.92 3.20383 313.785 4.03844C313.664 4.87305 313.604 6.7442 313.604 9.65188V21.9086C313.617 23.7932 313.785 24.9172 314.108 25.2807C314.431 25.6307 315.044 25.8057 315.946 25.8057C318.153 25.8057 319.796 25.6374 320.873 25.3008C321.95 24.9508 322.973 24.3249 323.942 23.423C324.925 22.5211 325.975 21.0066 327.092 18.8797C327.321 18.449 327.556 18.2336 327.799 18.2336C328.162 18.2336 328.344 18.4288 328.344 18.8191C328.344 19.6941 327.879 22.5211 326.951 27.2999Z" fill="#CE571B"/>
<path d="M350.325 2.24134C350.608 1.89134 350.904 1.50095 351.214 1.07019C351.577 0.54519 351.88 0.282691 352.122 0.282691C352.391 0.282691 352.566 0.349998 352.647 0.484613C352.728 0.619228 352.795 1.03653 352.849 1.73653L353.253 8.0365L353.293 8.84419C353.293 9.38265 353.078 9.65188 352.647 9.65188C352.364 9.65188 352.136 9.42977 351.961 8.98554C351.409 7.55862 350.413 5.9769 348.972 4.24037C347.545 2.49037 345.741 1.61538 343.561 1.61538C341.945 1.61538 340.586 2.08653 339.482 3.02883C338.391 3.95767 337.537 5.23652 336.917 6.86535C336.312 8.49419 336.009 10.4461 336.009 12.7211C336.009 16.6115 336.864 19.7076 338.573 22.0095C340.283 24.298 342.41 25.4422 344.954 25.4422C347.714 25.4422 350.244 23.773 352.546 20.4345C352.829 20.0307 353.098 19.8288 353.354 19.8288C353.785 19.8288 354 20.0441 354 20.4749C354 21.3634 352.937 22.7768 350.81 24.7153C348.696 26.6537 346.044 27.623 342.854 27.623C338.627 27.623 335.289 26.3172 332.839 23.7057C330.389 21.0941 329.164 17.8836 329.164 14.074C329.164 10.2778 330.395 6.98651 332.859 4.19998C335.336 1.39999 338.459 0 342.228 0C344.88 0 347.579 0.747112 350.325 2.24134Z" fill="#CE571B"/>
<path d="M93.0763 19.8929C92.0482 18.8457 91.5342 17.8623 91.5342 16.9428C91.5342 16.2148 91.8087 15.5827 92.3579 15.0463C92.9071 14.5099 93.5839 14.2417 94.3885 14.2417C95.1292 14.2417 95.7263 14.4524 96.1797 14.8739C96.6394 15.2889 96.8693 15.7551 96.8693 16.2723C96.8693 17.0641 96.3489 17.9134 95.308 18.8202C96.5149 19.778 97.642 21.1764 98.6892 23.0155C99.232 22.1343 99.5034 21.2882 99.5034 20.4772C99.5034 19.8003 99.1745 19.4364 98.5168 19.3853C98.2486 19.3597 98.1145 19.264 98.1145 19.0979C98.1145 18.9255 98.2965 18.8393 98.6605 18.8393L100.576 18.8776C100.953 18.8776 101.39 18.8585 101.888 18.8202C102.125 18.801 102.284 18.7914 102.367 18.7914C102.591 18.7914 102.703 18.8808 102.703 19.0596C102.703 19.1873 102.575 19.2831 102.319 19.347C101.898 19.4555 101.575 19.596 101.352 19.7684C101.128 19.9408 100.956 20.1292 100.835 20.3335C100.713 20.5315 100.426 21.0998 99.9727 22.0385C99.679 22.6323 99.3725 23.156 99.0532 23.6093C99.8641 25.2696 100.614 26.0997 101.304 26.0997C101.585 26.0997 101.888 25.9912 102.214 25.774C102.393 25.6527 102.514 25.5921 102.578 25.5921C102.763 25.5921 102.856 25.6815 102.856 25.8602C102.856 26.039 102.514 26.32 101.831 26.7031C101.154 27.0863 100.493 27.2778 99.8482 27.2778C99.3437 27.2778 98.9063 27.1214 98.5359 26.8085C98.1656 26.4956 97.7952 26.0359 97.4249 25.4292C95.9179 26.668 94.5162 27.2874 93.22 27.2874C92.2238 27.2874 91.4065 27.0001 90.7679 26.4254C90.1293 25.8507 89.8101 25.0844 89.8101 24.1266C89.8101 23.5838 89.9633 23.0091 90.2698 22.4025C90.5763 21.7958 91.5118 20.9593 93.0763 19.8929ZM94.8004 18.3508C95.4198 17.7378 95.7295 17.0992 95.7295 16.4351C95.7295 15.9243 95.5826 15.5348 95.2889 15.2666C94.9951 14.9984 94.6727 14.8643 94.3215 14.8643C94.0213 14.8643 93.7595 14.9792 93.536 15.2091C93.3125 15.439 93.2008 15.7327 93.2008 16.0903C93.2008 16.7608 93.734 17.5143 94.8004 18.3508ZM93.5073 20.3527C92.575 21.1126 92.1089 21.9427 92.1089 22.8431C92.1089 23.5519 92.3515 24.2351 92.8368 24.8928C93.3285 25.5442 93.9671 25.8698 94.7525 25.8698C95.4677 25.8698 96.2531 25.5282 97.1088 24.8449C96.1701 23.0889 94.9696 21.5915 93.5073 20.3527Z" fill="#CE571B"/>
</svg>
