<svg width="179" height="172" viewBox="0 0 179 172" fill="none" xmlns="http://www.w3.org/2000/svg">
<rect width="179" height="172" fill="#2671A7"/>
<path d="M52.5552 42.2665C55.1488 42.6323 57.2812 43.4219 58.9526 44.6351C60.6432 45.829 61.9112 48.2168 62.7565 51.7986C63.5442 55.1493 64.3895 57.3638 65.2924 58.4422C66.1953 59.5013 67.4633 60.079 69.0963 60.1753C69.9992 60.2331 70.4507 60.5219 70.4507 61.0419C70.4507 61.6003 69.7206 61.8796 68.2606 61.8796L57.166 61.6196C56.0133 60.4642 55.2256 58.4037 54.803 55.4381C54.265 51.6445 53.7079 48.9678 53.1316 47.408C52.5552 45.8482 51.6907 44.7313 50.538 44.0573C49.3853 43.3834 48.0501 43.0464 46.5324 43.0464C46.0906 43.0464 45.4854 43.0753 44.717 43.133C44.717 49.9114 44.7362 54.0902 44.7746 55.6692C44.8322 57.229 45.1492 58.3555 45.7256 59.0488C46.3019 59.7228 47.397 60.0983 49.0107 60.1753C49.8752 60.2331 50.3075 60.5219 50.3075 61.0419C50.3075 61.5618 49.9329 61.8218 49.1836 61.8218L40.3368 61.5907C39.1456 61.5907 37.6183 61.6388 35.7548 61.7351C34.045 61.8314 32.9596 61.8796 32.4985 61.8796C31.7108 61.8796 31.317 61.6003 31.317 61.0419C31.317 60.5027 31.6628 60.2331 32.3544 60.2331C33.4302 60.2331 34.4196 59.9635 35.3226 59.4243C36.2447 58.8851 36.7058 56.6032 36.7058 52.5785L36.677 47.2058L36.7058 36.836C36.7058 31.4826 36.4657 28.2186 35.9854 27.0439C35.5243 25.85 34.2659 25.2338 32.2103 25.1953C31.4034 25.176 31 24.8968 31 24.3576C31 23.7992 31.5379 23.5199 32.6138 23.5199C38.0314 23.5199 42.6229 23.4044 46.3884 23.1733C48.0597 23.0578 49.5678 23 50.9126 23C55.2736 23 58.6933 23.8762 61.1716 25.6286C63.6498 27.3617 64.889 29.634 64.889 32.4455C64.889 34.3326 64.303 36.0272 63.1311 37.5293C61.9592 39.0313 60.4895 40.1482 58.7221 40.88C56.9739 41.6117 54.9182 42.0739 52.5552 42.2665ZM44.717 41.0533C45.2165 41.0725 45.5911 41.0822 45.8408 41.0822C47.5122 41.0822 49.1932 40.7741 50.8838 40.1578C52.5936 39.5224 53.7944 38.521 54.486 37.1538C55.1968 35.7673 55.5522 34.2941 55.5522 32.7343C55.5522 30.3272 54.8414 28.4497 53.4197 27.1017C51.9981 25.7537 50.1634 25.0797 47.9157 25.0797C46.9743 25.0797 45.9081 25.253 44.717 25.5997V41.0533Z" fill="#F8F8F8"/>
<path d="M83.1187 55.2648L85.4817 48.679C86.7689 45.0394 87.4124 42.5457 87.4124 41.1977C87.4124 39.5994 86.5095 38.6751 84.7036 38.4247C83.8968 38.2899 83.4933 38.0107 83.4933 37.5871C83.4933 37.0479 83.8871 36.7783 84.6748 36.7783C84.9822 36.7783 85.5393 36.8264 86.3462 36.9227C87.1915 37.019 88.1905 37.0671 89.3432 37.0671C90.1116 37.0671 91.0434 37.0093 92.1385 36.8938C93.0606 36.7783 93.5889 36.7205 93.7234 36.7205C94.6455 36.7205 95.1066 37.0093 95.1066 37.5871C95.1066 37.9144 94.8088 38.1551 94.2133 38.3092C92.734 38.7136 91.639 39.5416 90.9281 40.7933C90.2173 42.0258 88.7188 45.8964 86.4327 52.4052C83.4549 60.8589 81.2936 66.5108 79.9488 69.3608C78.6232 72.2108 77.1439 74.2424 75.511 75.4556C73.8972 76.6688 72.1682 77.2754 70.3239 77.2754C68.6717 77.2754 67.3749 76.8614 66.4336 76.0333C65.5114 75.2245 65.0503 74.175 65.0503 72.8848C65.0503 72.0568 65.3769 71.2673 66.0301 70.5162C66.7025 69.7845 67.5766 69.4186 68.6525 69.4186C70.3815 69.4186 71.4766 70.4488 71.9376 72.5093C72.1874 73.5492 72.5716 74.0691 73.0903 74.0691C74.3967 74.0691 75.7991 72.7308 77.2976 70.0541C78.8153 67.3966 79.5742 65.4132 79.5742 64.1037C79.5742 63.449 78.969 61.687 77.7587 58.8177C76.5676 55.9292 74.9538 52.1934 72.9174 47.6102C70.9002 43.0271 69.6131 40.3986 69.0559 39.7246C68.4988 39.0313 67.8552 38.598 67.1252 38.4247C66.3759 38.2707 66.0013 38.0011 66.0013 37.6159C66.0013 37.0575 66.4912 36.7783 67.471 36.7783C67.7015 36.7783 68.4796 36.8457 69.8052 36.9805C70.612 37.0767 71.6495 37.1249 72.9174 37.1249C75.0115 37.1249 76.8462 37.0479 78.4215 36.8938L79.6606 36.7783C80.4291 36.7783 80.8133 37.0382 80.8133 37.5582C80.8133 38.0588 80.3522 38.3958 79.4301 38.5692C78.8153 38.6847 78.335 38.9543 77.9892 39.3779C77.6434 39.7823 77.4705 40.1771 77.4705 40.5622C77.4705 40.9859 77.9796 42.5938 78.9978 45.3861C80.0353 48.1783 81.4089 51.4712 83.1187 55.2648Z" fill="#F8F8F8"/>
<path d="M106.766 58.8755C105.575 60.0116 104.374 60.8686 103.164 61.4463C101.954 62.0047 100.734 62.2839 99.5041 62.2839C97.5445 62.2839 96.0268 61.6966 94.951 60.5219C93.8944 59.328 93.3661 57.8838 93.3661 56.1892C93.3661 54.8797 93.6831 53.7147 94.317 52.694C94.9702 51.6542 95.7675 50.855 96.7089 50.2966C97.6694 49.7189 99.2448 49.0352 101.435 48.2457C103.279 47.591 104.509 47.0807 105.123 46.7148C105.757 46.3297 106.286 45.7808 106.708 45.0683C107.131 44.3366 107.342 43.393 107.342 42.2376C107.342 40.9666 107.025 39.9556 106.391 39.2046C105.757 38.4344 104.883 38.0492 103.769 38.0492C102.808 38.0492 102.126 38.2899 101.723 38.7713C101.32 39.272 101.012 40.0712 100.801 41.1688C100.359 43.3641 99.1775 44.4617 97.2564 44.4617C96.4687 44.4617 95.7963 44.2307 95.2392 43.7685C94.682 43.3063 94.4035 42.642 94.4035 41.7754C94.4035 39.9268 95.4025 38.5499 97.4005 37.6448C99.4177 36.7205 101.819 36.2583 104.605 36.2583C107.006 36.2583 108.956 36.6242 110.455 37.356C111.972 38.0877 112.943 38.935 113.365 39.8979C113.788 40.8607 113.999 42.3627 113.999 44.404L113.942 51.2498C113.942 54.8508 114.057 57.1616 114.287 58.1822C114.537 59.2029 115.056 59.7132 115.843 59.7132C115.959 59.7132 116.112 59.7035 116.305 59.6843C116.689 59.6458 116.948 59.6265 117.083 59.6265C117.87 59.6265 118.264 59.848 118.264 60.2909C118.264 60.5797 118.101 60.8301 117.774 61.0419C117.448 61.2344 116.458 61.4848 114.806 61.7929C113.173 62.101 111.694 62.2551 110.368 62.2551C109.043 62.2551 108.13 62.0047 107.631 61.504C107.15 60.9841 106.862 60.1079 106.766 58.8755ZM107.141 47.3214C106.68 47.8798 105.575 48.6212 103.827 49.5455C102.232 50.3928 101.166 51.1439 100.628 51.7986C100.09 52.4726 99.8211 53.4451 99.8211 54.716C99.8211 56.064 100.1 57.0942 100.657 57.8067C101.233 58.5 101.934 58.8466 102.76 58.8466C103.875 58.8466 104.912 58.3363 105.873 57.3157C106.833 56.2758 107.314 54.456 107.314 51.8564C107.314 51.0476 107.256 49.5359 107.141 47.3214Z" fill="#F8F8F8"/>
<path d="M128.079 41.891C129.386 40.0423 130.798 38.6558 132.315 37.7315C133.852 36.8072 135.495 36.345 137.243 36.345C138.703 36.345 140.038 36.7205 141.249 37.4715C142.459 38.2225 143.275 39.118 143.698 40.1578C144.14 41.1977 144.361 42.6709 144.361 44.5773L144.102 56.1025C144.102 57.6816 144.246 58.7311 144.534 59.251C144.822 59.7709 145.427 60.1079 146.349 60.262C147.118 60.3968 147.502 60.7049 147.502 61.1863C147.502 61.687 147.127 61.9373 146.378 61.9373C145.744 61.9373 144.351 61.8603 142.2 61.7062C141.45 61.6677 140.845 61.6485 140.384 61.6485C139.942 61.6485 138.674 61.7351 136.58 61.9084H135.168C134.381 61.9084 133.987 61.6485 133.987 61.1285C133.987 60.7049 134.342 60.4257 135.053 60.2909C135.706 60.1561 136.225 59.9346 136.609 59.6265C136.993 59.3184 137.243 57.8067 137.358 55.0915C137.493 52.3763 137.56 49.6803 137.56 47.0036C137.56 44.0381 137.32 42.0065 136.84 40.9089C136.379 39.8112 135.485 39.2624 134.16 39.2624C132.527 39.2624 131.009 40.466 129.607 42.8731C128.223 45.2609 127.532 48.939 127.532 53.9072C127.532 55.8329 127.628 57.229 127.82 58.0956C128.012 58.9621 128.242 59.511 128.511 59.742C128.8 59.9539 129.395 60.1368 130.298 60.2909C130.836 60.3871 131.105 60.6664 131.105 61.1285C131.105 61.6677 130.711 61.9373 129.924 61.9373C129.539 61.9373 129.117 61.9181 128.656 61.8796C126.811 61.7062 125.812 61.6196 125.659 61.6196C122.892 61.6196 120.625 61.7159 118.858 61.9084C118.57 61.9469 118.339 61.9662 118.166 61.9662C117.455 61.9662 117.1 61.687 117.1 61.1285C117.1 60.6471 117.417 60.3679 118.051 60.2909C119.031 60.1753 119.693 59.9057 120.039 59.4821C120.385 59.0584 120.635 57.7393 120.788 55.5248C120.961 53.291 121.048 50.6336 121.048 47.5525C121.048 43.6241 120.904 41.1977 120.616 40.2734C120.327 39.3298 119.636 38.6462 118.541 38.2225C117.753 37.9144 117.359 37.6159 117.359 37.3271C117.359 36.8649 117.926 36.6338 119.059 36.6338C122.249 36.6338 124.832 36.5087 126.811 36.2583C127.541 37.9337 127.964 39.8112 128.079 41.891Z" fill="#F8F8F8"/>
<path d="M52.6192 99.2665C55.2204 99.6323 57.3592 100.422 59.0356 101.635C60.7312 102.829 62.0029 105.217 62.8507 108.799C63.6407 112.149 64.4885 114.364 65.3942 115.442C66.2998 116.501 67.5715 117.079 69.2093 117.175C70.1149 117.233 70.5677 117.522 70.5677 118.042C70.5677 118.6 69.8355 118.88 68.3711 118.88L57.2436 118.62C56.0875 117.464 55.2975 115.404 54.8736 112.438C54.3341 108.645 53.7753 105.968 53.1972 104.408C52.6192 102.848 51.7521 101.731 50.596 101.057C49.4399 100.383 48.1007 100.046 46.5785 100.046C46.1354 100.046 45.5284 100.075 44.7577 100.133C44.7577 106.911 44.7769 111.09 44.8155 112.669C44.8733 114.229 45.1912 115.356 45.7693 116.049C46.3473 116.723 47.4456 117.098 49.0642 117.175C49.9312 117.233 50.3648 117.522 50.3648 118.042C50.3648 118.562 49.989 118.822 49.2376 118.822L40.3645 118.591C39.1698 118.591 37.638 118.639 35.7689 118.735C34.054 118.831 32.9654 118.88 32.5029 118.88C31.7129 118.88 31.3179 118.6 31.3179 118.042C31.3179 117.503 31.6648 117.233 32.3584 117.233C33.4375 117.233 34.4298 116.963 35.3354 116.424C36.2603 115.885 36.7227 113.603 36.7227 109.578L36.6938 104.206L36.7227 93.836C36.7227 88.4826 36.4819 85.2186 36.0002 84.0439C35.5377 82.85 34.2756 82.2338 32.2139 82.1953C31.4046 82.176 31 81.8968 31 81.3576C31 80.7992 31.5395 80.5199 32.6185 80.5199C38.0522 80.5199 42.6574 80.4044 46.434 80.1733C48.1104 80.0578 49.6229 80 50.9717 80C55.3457 80 58.7755 80.8762 61.2611 82.6286C63.7467 84.3617 64.9895 86.634 64.9895 89.4455C64.9895 91.3326 64.4018 93.0272 63.2265 94.5293C62.0511 96.0313 60.577 97.1482 58.8044 97.88C57.0509 98.6117 54.9892 99.0739 52.6192 99.2665ZM44.7577 98.0533C45.2586 98.0725 45.6344 98.0822 45.8849 98.0822C47.5612 98.0822 49.2472 97.7741 50.9428 97.1578C52.6577 96.5224 53.862 95.521 54.5557 94.1538C55.2686 92.7673 55.6251 91.2941 55.6251 89.7343C55.6251 87.3272 54.9121 85.4497 53.4863 84.1017C52.0604 82.7537 50.2203 82.0797 47.9659 82.0797C47.0217 82.0797 45.9523 82.253 44.7577 82.5997V98.0533Z" fill="#F8F8F8"/>
<path d="M83.2733 112.265L85.6434 105.679C86.9343 102.039 87.5798 99.5457 87.5798 98.1977C87.5798 96.5994 86.6742 95.6751 84.863 95.4247C84.0537 95.2899 83.6491 95.0107 83.6491 94.5871C83.6491 94.0479 84.0441 93.7783 84.8341 93.7783C85.1424 93.7783 85.7012 93.8264 86.5104 93.9227C87.3582 94.019 88.3602 94.0671 89.5163 94.0671C90.2871 94.0671 91.2216 94.0093 92.3199 93.8938C93.2448 93.7783 93.7746 93.7205 93.9095 93.7205C94.8344 93.7205 95.2968 94.0093 95.2968 94.5871C95.2968 94.9144 94.9982 95.1551 94.4009 95.3092C92.9172 95.7136 91.8189 96.5416 91.106 97.7933C90.393 99.0258 88.8901 102.896 86.5971 109.405C83.6105 117.859 81.4428 123.511 80.094 126.361C78.7645 129.211 77.2809 131.242 75.643 132.456C74.0245 133.669 72.2903 134.275 70.4406 134.275C68.7835 134.275 67.4829 133.861 66.5387 133.033C65.6138 132.225 65.1514 131.175 65.1514 129.885C65.1514 129.057 65.4789 128.267 66.1341 127.516C66.8085 126.784 67.6852 126.419 68.7642 126.419C70.4984 126.419 71.5967 127.449 72.0591 129.509C72.3096 130.549 72.695 131.069 73.2152 131.069C74.5255 131.069 75.9321 129.731 77.435 127.054C78.9572 124.397 79.7183 122.413 79.7183 121.104C79.7183 120.449 79.1114 118.687 77.8974 115.818C76.7028 112.929 75.0843 109.193 73.0418 104.61C71.0186 100.027 69.7276 97.3986 69.1688 96.7246C68.6101 96.0313 67.9646 95.598 67.2324 95.4247C66.4809 95.2707 66.1052 95.0011 66.1052 94.6159C66.1052 94.0575 66.5965 93.7783 67.5792 93.7783C67.8104 93.7783 68.5908 93.8457 69.9203 93.9805C70.7296 94.0767 71.7701 94.1249 73.0418 94.1249C75.1421 94.1249 76.9822 94.0479 78.5622 93.8938L79.805 93.7783C80.5758 93.7783 80.9611 94.0382 80.9611 94.5582C80.9611 95.0588 80.4987 95.3958 79.5738 95.5692C78.9572 95.6847 78.4755 95.9543 78.1287 96.3779C77.7818 96.7823 77.6084 97.1771 77.6084 97.5622C77.6084 97.9859 78.119 99.5938 79.1403 102.386C80.1808 105.178 81.5584 108.471 83.2733 112.265Z" fill="#F8F8F8"/>
<path d="M106.991 115.875C105.796 117.012 104.592 117.869 103.378 118.446C102.164 119.005 100.941 119.284 99.7074 119.284C97.742 119.284 96.2198 118.697 95.1408 117.522C94.081 116.328 93.5511 114.884 93.5511 113.189C93.5511 111.88 93.8691 110.715 94.5049 109.694C95.16 108.654 95.9597 107.855 96.9038 107.297C97.8673 106.719 99.4473 106.035 101.644 105.246C103.494 104.591 104.727 104.081 105.343 103.715C105.979 103.33 106.509 102.781 106.933 102.068C107.357 101.337 107.569 100.393 107.569 99.2376C107.569 97.9666 107.251 96.9556 106.615 96.2046C105.979 95.4344 105.103 95.0492 103.985 95.0492C103.022 95.0492 102.338 95.2899 101.933 95.7713C101.528 96.272 101.22 97.0712 101.008 98.1688C100.565 100.364 99.3798 101.462 97.453 101.462C96.663 101.462 95.9886 101.231 95.4298 100.768C94.871 100.306 94.5916 99.642 94.5916 98.7754C94.5916 96.9268 95.5936 95.5499 97.5975 94.6448C99.6207 93.7205 102.029 93.2583 104.823 93.2583C107.232 93.2583 109.187 93.6242 110.69 94.356C112.213 95.0877 113.186 95.935 113.61 96.8979C114.033 97.8607 114.245 99.3627 114.245 101.404L114.188 108.25C114.188 111.851 114.303 114.162 114.534 115.182C114.785 116.203 115.305 116.713 116.095 116.713C116.211 116.713 116.365 116.704 116.558 116.684C116.943 116.646 117.203 116.626 117.338 116.626C118.128 116.626 118.523 116.848 118.523 117.291C118.523 117.58 118.359 117.83 118.032 118.042C117.704 118.234 116.712 118.485 115.055 118.793C113.417 119.101 111.933 119.255 110.604 119.255C109.274 119.255 108.359 119.005 107.858 118.504C107.376 117.984 107.087 117.108 106.991 115.875ZM107.367 104.321C106.904 104.88 105.796 105.621 104.043 106.546C102.444 107.393 101.374 108.144 100.835 108.799C100.295 109.473 100.025 110.445 100.025 111.716C100.025 113.064 100.305 114.094 100.863 114.807C101.442 115.5 102.145 115.847 102.973 115.847C104.091 115.847 105.131 115.336 106.095 114.316C107.058 113.276 107.54 111.456 107.54 108.856C107.54 108.048 107.482 106.536 107.367 104.321Z" fill="#F8F8F8"/>
<path d="M128.367 98.891C129.678 97.0423 131.094 95.6558 132.616 94.7315C134.157 93.8072 135.805 93.345 137.558 93.345C139.023 93.345 140.362 93.7205 141.576 94.4715C142.79 95.2225 143.609 96.118 144.033 97.1578C144.476 98.1977 144.697 99.6709 144.697 101.577L144.437 113.102C144.437 114.682 144.582 115.731 144.871 116.251C145.16 116.771 145.767 117.108 146.692 117.262C147.462 117.397 147.848 117.705 147.848 118.186C147.848 118.687 147.472 118.937 146.72 118.937C146.085 118.937 144.688 118.86 142.53 118.706C141.778 118.668 141.171 118.648 140.709 118.648C140.266 118.648 138.994 118.735 136.894 118.908H135.477C134.687 118.908 134.292 118.648 134.292 118.129C134.292 117.705 134.649 117.426 135.362 117.291C136.017 117.156 136.537 116.935 136.922 116.626C137.308 116.318 137.558 114.807 137.674 112.092C137.809 109.376 137.876 106.68 137.876 104.004C137.876 101.038 137.635 99.0065 137.154 97.9089C136.691 96.8112 135.795 96.2624 134.466 96.2624C132.828 96.2624 131.306 97.466 129.899 99.8731C128.512 102.261 127.818 105.939 127.818 110.907C127.818 112.833 127.914 114.229 128.107 115.096C128.3 115.962 128.531 116.511 128.801 116.742C129.09 116.954 129.687 117.137 130.593 117.291C131.132 117.387 131.402 117.666 131.402 118.129C131.402 118.668 131.007 118.937 130.217 118.937C129.832 118.937 129.408 118.918 128.945 118.88C127.096 118.706 126.094 118.62 125.939 118.62C123.165 118.62 120.891 118.716 119.118 118.908C118.829 118.947 118.598 118.966 118.425 118.966C117.712 118.966 117.355 118.687 117.355 118.129C117.355 117.647 117.673 117.368 118.309 117.291C119.292 117.175 119.957 116.906 120.303 116.482C120.65 116.058 120.901 114.739 121.055 112.525C121.228 110.291 121.315 107.634 121.315 104.552C121.315 100.624 121.171 98.1977 120.881 97.2734C120.592 96.3298 119.899 95.6462 118.8 95.2225C118.01 94.9144 117.615 94.6159 117.615 94.3271C117.615 93.8649 118.184 93.6338 119.321 93.6338C122.519 93.6338 125.111 93.5087 127.096 93.2583C127.828 94.9337 128.252 96.8112 128.367 98.891Z" fill="#F8F8F8"/>
<path d="M54.082 149.279C51.9076 149.169 48.5241 149.113 43.9317 149.113C42.3313 149.113 41.0309 149.16 40.0307 149.254C39.7872 149.271 39.6088 149.279 39.4958 149.279C39.1653 149.279 39 149.151 39 148.896C39 148.777 39.0435 148.696 39.1305 148.653C39.2174 148.602 39.4305 148.551 39.7698 148.5C40.309 148.423 40.7222 148.27 41.0092 148.04C41.2962 147.801 41.4963 147.452 41.6093 146.992C41.7311 146.523 41.8007 145.339 41.8181 143.439C41.8355 141.53 41.8442 139.264 41.8442 136.639C41.8442 135.591 41.7659 134.833 41.6093 134.364C41.4528 133.887 41.2266 133.542 40.9309 133.329C40.6439 133.108 40.2351 132.984 39.7045 132.959C39.3305 132.941 39.1435 132.805 39.1435 132.55C39.1435 132.294 39.3566 132.166 39.7828 132.166L44.1143 132.281C44.7841 132.281 45.7191 132.251 46.9194 132.192C47.3543 132.175 47.65 132.166 47.8066 132.166C48.1719 132.166 48.3545 132.29 48.3545 132.537C48.3545 132.673 48.2936 132.771 48.1719 132.831C48.0588 132.882 47.7674 132.941 47.2977 133.01C46.715 133.086 46.3018 133.231 46.0583 133.444C45.8234 133.657 45.6625 134.028 45.5756 134.556C45.4973 135.084 45.4581 136.269 45.4581 138.109V145.867C45.4668 147.06 45.5756 147.771 45.7843 148.001C45.9931 148.223 46.3888 148.334 46.9716 148.334C48.398 148.334 49.4591 148.227 50.155 148.014C50.8508 147.792 51.5118 147.396 52.1381 146.825C52.773 146.255 53.4514 145.296 54.1734 143.95C54.3212 143.677 54.4734 143.541 54.63 143.541C54.8648 143.541 54.9823 143.664 54.9823 143.911C54.9823 144.465 54.6822 146.255 54.082 149.279Z" fill="#F8F8F8"/>
<path d="M61.1482 147.899C60.6089 148.402 60.0653 148.781 59.5173 149.036C58.9694 149.284 58.417 149.407 57.8604 149.407C56.9732 149.407 56.2861 149.147 55.799 148.627C55.3206 148.099 55.0814 147.46 55.0814 146.71C55.0814 146.131 55.2249 145.616 55.512 145.164C55.8077 144.704 56.1687 144.35 56.5948 144.103C57.0297 143.848 57.743 143.545 58.7345 143.196C59.5695 142.906 60.1262 142.68 60.4045 142.518C60.6915 142.348 60.9307 142.105 61.1221 141.79C61.3134 141.466 61.4091 141.049 61.4091 140.537C61.4091 139.975 61.2656 139.528 60.9786 139.195C60.6915 138.855 60.2958 138.684 59.7913 138.684C59.3564 138.684 59.0476 138.791 58.865 139.004C58.6823 139.225 58.5432 139.579 58.4475 140.065C58.2474 141.036 57.7125 141.522 56.8427 141.522C56.4861 141.522 56.1817 141.419 55.9295 141.215C55.6772 141.01 55.5511 140.716 55.5511 140.333C55.5511 139.515 56.0034 138.906 56.908 138.505C57.8212 138.096 58.9085 137.892 60.1697 137.892C61.2569 137.892 62.1397 138.054 62.8181 138.377C63.5053 138.701 63.9445 139.076 64.1359 139.502C64.3272 139.928 64.4229 140.593 64.4229 141.496L64.3968 144.525C64.3968 146.118 64.449 147.141 64.5534 147.592C64.6664 148.044 64.9013 148.27 65.2579 148.27C65.3101 148.27 65.3797 148.265 65.4666 148.257C65.6406 148.24 65.758 148.231 65.8189 148.231C66.1755 148.231 66.3538 148.329 66.3538 148.525C66.3538 148.653 66.2799 148.764 66.132 148.858C65.9842 148.943 65.5362 149.053 64.7882 149.19C64.0489 149.326 63.3792 149.394 62.779 149.394C62.1789 149.394 61.7657 149.284 61.5396 149.062C61.3221 148.832 61.1917 148.444 61.1482 147.899ZM61.3178 142.787C61.109 143.034 60.6089 143.362 59.8174 143.771C59.0955 144.146 58.6127 144.478 58.3692 144.768C58.1257 145.066 58.0039 145.496 58.0039 146.059C58.0039 146.655 58.13 147.111 58.3823 147.426C58.6432 147.733 58.9607 147.886 59.3347 147.886C59.8391 147.886 60.3088 147.66 60.7437 147.209C61.1786 146.749 61.3961 145.944 61.3961 144.793C61.3961 144.435 61.37 143.767 61.3178 142.787Z" fill="#F8F8F8"/>
<path d="M79.1866 145.394C79.5084 144.687 79.9346 143.575 80.4652 142.058C80.9958 140.533 81.261 139.702 81.261 139.566C81.261 139.217 80.9914 139.008 80.4521 138.94C80.0433 138.88 79.8389 138.74 79.8389 138.518C79.8389 138.28 79.9998 138.16 80.3217 138.16C80.4521 138.16 80.613 138.169 80.8044 138.186C81.1697 138.228 81.4828 138.25 81.7438 138.25C82.0134 138.25 82.3613 138.233 82.7875 138.199C83.0919 138.173 83.2659 138.16 83.3094 138.16C83.5964 138.16 83.7399 138.288 83.7399 138.544C83.7399 138.706 83.5921 138.829 83.2963 138.914C82.9745 139.008 82.6918 139.183 82.4483 139.438C82.2134 139.694 81.9525 140.252 81.6655 141.113L79.0039 148.193C78.7343 149.002 78.4777 149.407 78.2342 149.407C78.0428 149.407 77.8558 149.198 77.6732 148.781L74.9464 142.94L74.6463 142.263L72.7937 146.659C72.1066 148.253 71.7152 149.105 71.6195 149.215C71.5238 149.335 71.4281 149.394 71.3325 149.394C71.1498 149.394 70.9628 149.177 70.7715 148.743C70.4496 148.018 70.0582 147.192 69.5972 146.263L66.727 140.512C66.3703 139.813 66.1094 139.383 65.9441 139.221C65.7789 139.051 65.5571 138.94 65.2788 138.889C64.9482 138.829 64.783 138.697 64.783 138.493C64.783 138.262 64.9613 138.147 65.3179 138.147C65.5354 138.147 65.9267 138.169 66.4921 138.211C66.9183 138.245 67.3141 138.262 67.6794 138.262C68.1404 138.262 68.8101 138.233 69.6886 138.173C69.9408 138.156 70.1409 138.147 70.2887 138.147C70.6801 138.147 70.8758 138.275 70.8758 138.531C70.8758 138.744 70.6845 138.867 70.3018 138.901C69.8408 138.944 69.6103 139.132 69.6103 139.464C69.6103 139.771 70.5366 141.815 72.3892 145.598C73.4243 143.238 73.9418 141.773 73.9418 141.202C73.9418 140.776 73.8157 140.32 73.5635 139.834C73.3199 139.349 72.9807 139.042 72.5458 138.914C72.2588 138.829 72.1153 138.688 72.1153 138.493C72.1153 138.262 72.2762 138.147 72.598 138.147C72.7024 138.147 72.8807 138.156 73.1329 138.173C73.8461 138.224 74.6289 138.25 75.4813 138.25C75.8292 138.25 76.3076 138.224 76.9165 138.173C77.16 138.156 77.3557 138.147 77.5036 138.147C77.808 138.147 77.9602 138.267 77.9602 138.505C77.9602 138.71 77.8036 138.838 77.4905 138.889C76.9687 138.965 76.7077 139.166 76.7077 139.489C76.7077 139.779 76.799 140.124 76.9817 140.525C77.721 142.152 78.456 143.775 79.1866 145.394Z" fill="#F8F8F8"/>
<path d="M85.8352 148.193C85.8352 148.866 85.5743 149.599 85.0524 150.391C84.5392 151.192 83.8826 151.84 83.0824 152.334C82.2822 152.837 81.7429 153.088 81.4646 153.088C81.2732 153.088 81.1775 152.973 81.1775 152.743C81.1775 152.624 81.2689 152.504 81.4515 152.385C82.2169 151.865 82.7649 151.333 83.0954 150.787C83.4259 150.242 83.5912 149.82 83.5912 149.522C83.5912 149.275 83.3955 149.105 83.0041 149.011C81.9516 148.755 81.4254 148.24 81.4254 147.464C81.4254 146.987 81.6298 146.595 82.0386 146.289C82.4474 145.973 82.8954 145.816 83.3824 145.816C84.1304 145.816 84.7262 146.059 85.1698 146.544C85.6134 147.03 85.8352 147.579 85.8352 148.193Z" fill="#F8F8F8"/>
<path d="M107.104 149.279C104.93 149.169 101.546 149.113 96.9537 149.113C95.3533 149.113 94.0529 149.16 93.0527 149.254C92.8091 149.271 92.6308 149.279 92.5178 149.279C92.1873 149.279 92.022 149.151 92.022 148.896C92.022 148.777 92.0655 148.696 92.1525 148.653C92.2394 148.602 92.4525 148.551 92.7917 148.5C93.331 148.423 93.7442 148.27 94.0312 148.04C94.3182 147.801 94.5183 147.452 94.6313 146.992C94.7531 146.523 94.8227 145.339 94.8401 143.439C94.8575 141.53 94.8662 139.264 94.8662 136.639C94.8662 135.591 94.7879 134.833 94.6313 134.364C94.4748 133.887 94.2486 133.542 93.9529 133.329C93.6659 133.108 93.2571 132.984 92.7265 132.959C92.3525 132.941 92.1655 132.805 92.1655 132.55C92.1655 132.294 92.3786 132.166 92.8048 132.166L97.1363 132.281C97.8061 132.281 98.7411 132.251 99.9414 132.192C100.376 132.175 100.672 132.166 100.829 132.166C101.194 132.166 101.377 132.29 101.377 132.537C101.377 132.673 101.316 132.771 101.194 132.831C101.081 132.882 100.789 132.941 100.32 133.01C99.737 133.086 99.3238 133.231 99.0803 133.444C98.8454 133.657 98.6845 134.028 98.5976 134.556C98.5193 135.084 98.4801 136.269 98.4801 138.109V145.867C98.4888 147.06 98.5976 147.771 98.8063 148.001C99.015 148.223 99.4108 148.334 99.9936 148.334C101.42 148.334 102.481 148.227 103.177 148.014C103.873 147.792 104.534 147.396 105.16 146.825C105.795 146.255 106.473 145.296 107.195 143.95C107.343 143.677 107.495 143.541 107.652 143.541C107.887 143.541 108.004 143.664 108.004 143.911C108.004 144.465 107.704 146.255 107.104 149.279Z" fill="#F8F8F8"/>
<path d="M122.468 149.279C120.293 149.169 116.91 149.113 112.318 149.113C110.717 149.113 109.417 149.16 108.417 149.254C108.173 149.271 107.995 149.279 107.882 149.279C107.551 149.279 107.386 149.151 107.386 148.896C107.386 148.777 107.429 148.696 107.516 148.653C107.603 148.602 107.816 148.551 108.156 148.5C108.695 148.423 109.108 148.27 109.395 148.04C109.682 147.801 109.882 147.452 109.995 146.992C110.117 146.523 110.187 145.339 110.204 143.439C110.221 141.53 110.23 139.264 110.23 136.639C110.23 135.591 110.152 134.833 109.995 134.364C109.839 133.887 109.612 133.542 109.317 133.329C109.03 133.108 108.621 132.984 108.09 132.959C107.716 132.941 107.529 132.805 107.529 132.55C107.529 132.294 107.742 132.166 108.169 132.166L112.5 132.281C113.17 132.281 114.105 132.251 115.305 132.192C115.74 132.175 116.036 132.166 116.192 132.166C116.558 132.166 116.74 132.29 116.74 132.537C116.74 132.673 116.679 132.771 116.558 132.831C116.445 132.882 116.153 132.941 115.684 133.01C115.101 133.086 114.688 133.231 114.444 133.444C114.209 133.657 114.048 134.028 113.961 134.556C113.883 135.084 113.844 136.269 113.844 138.109V145.867C113.853 147.06 113.961 147.771 114.17 148.001C114.379 148.223 114.775 148.334 115.357 148.334C116.784 148.334 117.845 148.227 118.541 148.014C119.237 147.792 119.898 147.396 120.524 146.825C121.159 146.255 121.837 145.296 122.559 143.95C122.707 143.677 122.859 143.541 123.016 143.541C123.251 143.541 123.368 143.664 123.368 143.911C123.368 144.465 123.068 146.255 122.468 149.279Z" fill="#F8F8F8"/>
<path d="M137.571 133.419C137.753 133.197 137.945 132.95 138.145 132.677C138.38 132.345 138.575 132.179 138.732 132.179C138.906 132.179 139.019 132.222 139.071 132.307C139.123 132.392 139.167 132.656 139.202 133.099L139.463 137.087L139.489 137.598C139.489 137.939 139.35 138.109 139.071 138.109C138.889 138.109 138.741 137.969 138.628 137.687C138.271 136.784 137.627 135.783 136.697 134.684C135.775 133.576 134.609 133.022 133.2 133.022C132.156 133.022 131.278 133.321 130.565 133.917C129.86 134.505 129.308 135.314 128.908 136.345C128.516 137.376 128.321 138.612 128.321 140.052C128.321 142.514 128.873 144.474 129.978 145.931C131.082 147.379 132.456 148.103 134.1 148.103C135.883 148.103 137.519 147.047 139.006 144.934C139.189 144.678 139.363 144.55 139.528 144.55C139.806 144.55 139.945 144.687 139.945 144.959C139.945 145.522 139.258 146.416 137.884 147.643C136.518 148.87 134.805 149.484 132.744 149.484C130.012 149.484 127.855 148.657 126.272 147.004C124.689 145.351 123.898 143.319 123.898 140.908C123.898 138.505 124.694 136.422 126.285 134.658C127.886 132.886 129.904 132 132.339 132C134.053 132 135.796 132.473 137.571 133.419Z" fill="#F8F8F8"/>
<path d="M84.6738 76.0867C83.2027 74.5882 82.4671 73.181 82.4671 71.8652C82.4671 70.8235 82.86 69.9189 83.6459 69.1513C84.4317 68.3838 85.4003 68 86.5516 68C87.6116 68 88.4659 68.3015 89.1147 68.9046C89.7726 69.4986 90.1015 70.1656 90.1015 70.9057C90.1015 72.0388 89.3568 73.2541 87.8674 74.5516C89.5944 75.9222 91.2072 77.9234 92.7057 80.555C93.4824 79.294 93.8708 78.0833 93.8708 76.9228C93.8708 75.9542 93.4002 75.4334 92.459 75.3603C92.0752 75.3237 91.8834 75.1867 91.8834 74.9491C91.8834 74.7024 92.1438 74.579 92.6646 74.579L95.4059 74.6338C95.945 74.6338 96.5709 74.6064 97.2836 74.5516C97.6217 74.5242 97.8502 74.5105 97.9689 74.5105C98.2888 74.5105 98.4487 74.6384 98.4487 74.8943C98.4487 75.077 98.2659 75.2141 97.9004 75.3055C97.2973 75.4608 96.8359 75.6618 96.5161 75.9085C96.1963 76.1552 95.9496 76.4248 95.7759 76.7172C95.6023 77.0005 95.1911 77.8137 94.5424 79.1569C94.122 80.0067 93.6834 80.756 93.2266 81.4048C94.387 83.7805 95.4607 84.9684 96.4475 84.9684C96.8496 84.9684 97.2836 84.8131 97.7496 84.5024C98.0055 84.3288 98.1791 84.242 98.2705 84.242C98.5355 84.242 98.668 84.3699 98.668 84.6257C98.668 84.8816 98.1791 85.2836 97.2014 85.8319C96.2328 86.3801 95.2871 86.6543 94.3642 86.6543C93.6423 86.6543 93.0164 86.4304 92.4864 85.9827C91.9565 85.5349 91.4265 84.877 90.8965 84.0089C88.74 85.7816 86.7344 86.668 84.8794 86.668C83.454 86.668 82.2844 86.2568 81.3706 85.4344C80.4569 84.612 80 83.5155 80 82.1449C80 81.3682 80.2193 80.5458 80.6579 79.6778C81.0965 78.8097 82.4352 77.6127 84.6738 76.0867ZM87.141 73.88C88.0273 73.0028 88.4705 72.089 88.4705 71.1387C88.4705 70.4077 88.2603 69.8503 87.84 69.4666C87.4197 69.0828 86.9582 68.8909 86.4557 68.8909C86.0262 68.8909 85.6516 69.0554 85.3317 69.3843C85.0119 69.7133 84.852 70.1336 84.852 70.6453C84.852 71.6048 85.615 72.683 87.141 73.88ZM85.2906 76.7446C83.9565 77.832 83.2895 79.0199 83.2895 80.3082C83.2895 81.3225 83.6367 82.3002 84.3312 83.2414C85.0348 84.1734 85.9485 84.6394 87.0724 84.6394C88.0958 84.6394 89.2198 84.1506 90.4442 83.1729C89.101 80.66 87.3831 78.5173 85.2906 76.7446Z" fill="#F8F8F8"/>
</svg>
