<svg width="354" height="38" viewBox="0 0 354 38" fill="none" xmlns="http://www.w3.org/2000/svg">
<path d="M15.1038 13.5087C16.9211 13.7645 18.4153 14.3164 19.5865 15.1645C20.7711 15.9991 21.6595 17.6683 22.2518 20.1721C22.8037 22.5144 23.396 24.0625 24.0287 24.8163C24.6614 25.5567 25.5499 25.9606 26.6941 26.0279C27.3268 26.0683 27.6431 26.2702 27.6431 26.6336C27.6431 27.024 27.1316 27.2192 26.1085 27.2192L18.3345 27.0375C17.5268 26.2298 16.9749 24.7894 16.6788 22.7164C16.3019 20.0644 15.9115 18.1933 15.5076 17.1029C15.1038 16.0125 14.498 15.2318 13.6903 14.7606C12.8826 14.2895 11.9471 14.0539 10.8836 14.0539C10.574 14.0539 10.15 14.0741 9.6115 14.1145C9.6115 18.8529 9.62496 21.7741 9.65188 22.8779C9.69226 23.9683 9.91438 24.7558 10.3182 25.2404C10.7221 25.7115 11.4894 25.974 12.6201 26.0279C13.2259 26.0683 13.5288 26.2702 13.5288 26.6336C13.5288 26.9971 13.2663 27.1788 12.7413 27.1788L6.54228 27.0173C5.70767 27.0173 4.63748 27.051 3.33172 27.1183C2.13364 27.1856 1.37307 27.2192 1.05 27.2192C0.498075 27.2192 0.222114 27.024 0.222114 26.6336C0.222114 26.2567 0.464421 26.0683 0.949034 26.0683C1.70288 26.0683 2.39614 25.8798 3.02883 25.5029C3.67498 25.126 3.99806 23.5308 3.99806 20.7173L3.97787 16.9616L3.99806 9.71257C3.99806 5.97028 3.82979 3.68856 3.49325 2.86741C3.17018 2.0328 2.28845 1.60203 0.848073 1.57511C0.282691 1.56164 0 1.36645 0 0.989531C0 0.599148 0.376921 0.403957 1.13076 0.403957C4.9269 0.403957 8.14419 0.323188 10.7826 0.16165C11.9538 0.0808813 13.0105 0.0404968 13.9528 0.0404968C17.0086 0.0404968 19.4047 0.652994 21.1413 1.87799C22.8778 3.08952 23.746 4.67798 23.746 6.64335C23.746 7.96258 23.3355 9.14719 22.5143 10.1972C21.6932 11.2472 20.6634 12.0279 19.4249 12.5395C18.1999 13.051 16.7595 13.3741 15.1038 13.5087ZM9.6115 12.6606C9.96149 12.6741 10.224 12.6808 10.399 12.6808C11.5701 12.6808 12.748 12.4654 13.9326 12.0347C15.1307 11.5904 15.972 10.8904 16.4567 9.93468C16.9547 8.96546 17.2038 7.93565 17.2038 6.84527C17.2038 5.16259 16.7057 3.85009 15.7095 2.90779C14.7134 1.96549 13.4278 1.49434 11.8528 1.49434C11.1932 1.49434 10.4461 1.61549 9.6115 1.8578V12.6606Z" fill="#CE571B"/>
<path d="M36.5196 22.5952L38.1754 17.9914C39.0773 15.4472 39.5283 13.7039 39.5283 12.7616C39.5283 11.6443 38.8956 10.9981 37.6302 10.8231C37.0648 10.7289 36.7821 10.5337 36.7821 10.2376C36.7821 9.86064 37.0581 9.67218 37.61 9.67218C37.8254 9.67218 38.2158 9.70584 38.7812 9.77314C39.3735 9.84045 40.0735 9.87411 40.8812 9.87411C41.4196 9.87411 42.0725 9.83372 42.8398 9.75295C43.486 9.67218 43.8562 9.6318 43.9504 9.6318C44.5965 9.6318 44.9196 9.83372 44.9196 10.2376C44.9196 10.4664 44.711 10.6347 44.2936 10.7424C43.2571 11.0251 42.4898 11.6039 41.9917 12.4789C41.4937 13.3404 40.4437 16.0462 38.8417 20.5962C36.7552 26.5058 35.2408 30.4567 34.2985 32.449C33.3697 34.4413 32.3331 35.8615 31.1889 36.7096C30.0581 37.5576 28.8466 37.9817 27.5543 37.9817C26.3966 37.9817 25.488 37.6922 24.8284 37.1134C24.1822 36.548 23.8591 35.8144 23.8591 34.9125C23.8591 34.3336 24.088 33.7817 24.5457 33.2567C25.0168 32.7452 25.6293 32.4894 26.3832 32.4894C27.5947 32.4894 28.362 33.2096 28.6851 34.65C28.8601 35.3769 29.1293 35.7403 29.4928 35.7403C30.4081 35.7403 31.3908 34.8048 32.4408 32.9336C33.5043 31.0759 34.036 29.6894 34.036 28.774C34.036 28.3163 33.612 27.0846 32.7639 25.0788C31.9293 23.0596 30.7985 20.4481 29.3716 17.2443C27.9581 14.0404 27.0562 12.2029 26.6658 11.7318C26.2755 11.2472 25.8245 10.9443 25.313 10.8231C24.788 10.7154 24.5255 10.527 24.5255 10.2578C24.5255 9.86738 24.8687 9.67218 25.5553 9.67218C25.7168 9.67218 26.262 9.7193 27.1908 9.81353C27.7562 9.88084 28.4831 9.91449 29.3716 9.91449C30.8389 9.91449 32.1245 9.86064 33.2283 9.75295L34.0966 9.67218C34.635 9.67218 34.9043 9.85391 34.9043 10.2174C34.9043 10.5674 34.5812 10.8029 33.935 10.9241C33.5043 11.0049 33.1677 11.1933 32.9254 11.4895C32.6831 11.7722 32.562 12.0481 32.562 12.3174C32.562 12.6135 32.9187 13.7375 33.6322 15.6895C34.3591 17.6414 35.3216 19.9433 36.5196 22.5952Z" fill="#CE571B"/>
<path d="M53.0894 25.1192C52.2548 25.9135 51.4134 26.5125 50.5653 26.9163C49.7173 27.3067 48.8625 27.5019 48.0009 27.5019C46.6279 27.5019 45.5644 27.0913 44.8106 26.2702C44.0702 25.4356 43.7 24.426 43.7 23.2414C43.7 22.326 43.9221 21.5116 44.3663 20.7981C44.824 20.0712 45.3827 19.5125 46.0423 19.1221C46.7154 18.7183 47.8192 18.2404 49.3538 17.6885C50.6461 17.2308 51.5077 16.8741 51.9384 16.6183C52.3826 16.3491 52.7528 15.9654 53.049 15.4673C53.3451 14.9558 53.4932 14.2962 53.4932 13.4885C53.4932 12.6001 53.2711 11.8933 52.8269 11.3683C52.3826 10.8299 51.7702 10.5606 50.9894 10.5606C50.3163 10.5606 49.8384 10.7289 49.5557 11.0654C49.273 11.4154 49.0577 11.9741 48.9096 12.7414C48.6 14.276 47.7721 15.0433 46.4259 15.0433C45.874 15.0433 45.4029 14.8818 45.0125 14.5587C44.6221 14.2356 44.4269 13.7712 44.4269 13.1654C44.4269 11.8731 45.1269 10.9106 46.5269 10.278C47.9404 9.6318 49.623 9.30872 51.575 9.30872C53.2576 9.30872 54.624 9.56449 55.674 10.076C56.7374 10.5876 57.4172 11.1799 57.7134 11.8529C58.0095 12.526 58.1576 13.576 58.1576 15.0029L58.1172 19.7885C58.1172 22.3058 58.198 23.9212 58.3595 24.6346C58.5345 25.3481 58.898 25.7048 59.4499 25.7048C59.5307 25.7048 59.6384 25.6981 59.773 25.6846C60.0422 25.6577 60.224 25.6442 60.3182 25.6442C60.8701 25.6442 61.1461 25.799 61.1461 26.1086C61.1461 26.3106 61.0317 26.4856 60.8028 26.6336C60.574 26.7683 59.8807 26.9433 58.723 27.1586C57.5788 27.374 56.5422 27.4817 55.6134 27.4817C54.6846 27.4817 54.0451 27.3067 53.6951 26.9567C53.3586 26.5933 53.1567 25.9808 53.0894 25.1192ZM53.3519 17.0423C53.0288 17.4327 52.2548 17.951 51.0298 18.5971C49.9125 19.1894 49.1654 19.7144 48.7884 20.1721C48.4115 20.6433 48.2231 21.3231 48.2231 22.2115C48.2231 23.1539 48.4182 23.874 48.8086 24.3721C49.2125 24.8567 49.7038 25.099 50.2827 25.099C51.0634 25.099 51.7903 24.7423 52.4634 24.0288C53.1365 23.3019 53.473 22.0298 53.473 20.2125C53.473 19.6471 53.4326 18.5904 53.3519 17.0423Z" fill="#CE571B"/>
<path d="M68.0235 13.2462C68.9389 11.9539 69.9283 10.9847 70.9918 10.3385C72.0687 9.69238 73.2197 9.3693 74.4447 9.3693C75.4677 9.3693 76.4033 9.6318 77.2514 10.1568C78.0995 10.6818 78.6716 11.3078 78.9677 12.0347C79.2773 12.7616 79.4321 13.7914 79.4321 15.1241L79.2504 23.1808C79.2504 24.2846 79.3514 25.0183 79.5533 25.3817C79.7552 25.7452 80.1793 25.9808 80.8254 26.0885C81.3639 26.1827 81.6331 26.3981 81.6331 26.7346C81.6331 27.0846 81.3706 27.2596 80.8456 27.2596C80.4014 27.2596 79.4254 27.2058 77.9177 27.0981C77.3927 27.0711 76.9687 27.0577 76.6456 27.0577C76.336 27.0577 75.4475 27.1183 73.9802 27.2394H72.9908C72.4389 27.2394 72.1629 27.0577 72.1629 26.6942C72.1629 26.3981 72.412 26.2029 72.9101 26.1086C73.3678 26.0144 73.7312 25.8596 74.0004 25.6442C74.2697 25.4288 74.4447 24.3721 74.5254 22.474C74.6197 20.576 74.6668 18.6914 74.6668 16.8202C74.6668 14.7472 74.4985 13.327 74.162 12.5597C73.8389 11.7924 73.2129 11.4087 72.2841 11.4087C71.1399 11.4087 70.0764 12.2501 69.0937 13.9327C68.1245 15.602 67.6399 18.1731 67.6399 21.6462C67.6399 22.9923 67.7072 23.9683 67.8418 24.574C67.9764 25.1798 68.138 25.5635 68.3264 25.725C68.5284 25.8731 68.9457 26.001 69.5783 26.1086C69.9553 26.176 70.1437 26.3711 70.1437 26.6942C70.1437 27.0711 69.8678 27.2596 69.3158 27.2596C69.0466 27.2596 68.7505 27.2461 68.4274 27.2192C67.1351 27.0981 66.4351 27.0375 66.3274 27.0375C64.3889 27.0375 62.8005 27.1048 61.562 27.2394C61.3601 27.2663 61.1986 27.2798 61.0774 27.2798C60.5793 27.2798 60.3303 27.0846 60.3303 26.6942C60.3303 26.3577 60.5524 26.1625 60.9967 26.1086C61.6832 26.0279 62.1476 25.8394 62.3899 25.5433C62.6322 25.2471 62.8072 24.325 62.9149 22.7769C63.0361 21.2154 63.0966 19.3577 63.0966 17.2039C63.0966 14.4577 62.9957 12.7616 62.7938 12.1154C62.5918 11.4558 62.1072 10.9779 61.3399 10.6818C60.788 10.4664 60.512 10.2578 60.512 10.0558C60.512 9.73276 60.9092 9.57122 61.7034 9.57122C63.938 9.57122 65.7486 9.48372 67.1351 9.30872C67.6466 10.4799 67.9428 11.7924 68.0235 13.2462Z" fill="#CE571B"/>
<path d="M123.26 13.5086C125.077 13.7644 126.571 14.3163 127.742 15.1644C128.927 15.999 129.815 17.6682 130.408 20.1721C130.96 22.5144 131.552 24.0624 132.184 24.8163C132.817 25.5566 133.706 25.9605 134.85 26.0278C135.483 26.0682 135.799 26.2701 135.799 26.6336C135.799 27.0239 135.287 27.2191 134.264 27.2191L126.49 27.0374C125.683 26.2297 125.131 24.7893 124.835 22.7163C124.458 20.0644 124.067 18.1932 123.663 17.1028C123.26 16.0125 122.654 15.2317 121.846 14.7605C121.038 14.2894 120.103 14.0538 119.039 14.0538C118.73 14.0538 118.306 14.074 117.767 14.1144C117.767 18.8528 117.781 21.774 117.808 22.8778C117.848 23.9682 118.07 24.7557 118.474 25.2403C118.878 25.7115 119.645 25.974 120.776 26.0278C121.382 26.0682 121.685 26.2701 121.685 26.6336C121.685 26.997 121.422 27.1788 120.897 27.1788L114.698 27.0172C113.863 27.0172 112.793 27.0509 111.487 27.1182C110.289 27.1855 109.529 27.2191 109.206 27.2191C108.654 27.2191 108.378 27.0239 108.378 26.6336C108.378 26.2566 108.62 26.0682 109.105 26.0682C109.859 26.0682 110.552 25.8797 111.185 25.5028C111.831 25.1259 112.154 23.5307 112.154 20.7172L112.134 16.9615L112.154 9.71249C112.154 5.9702 111.986 3.68848 111.649 2.86733C111.326 2.03271 110.444 1.60195 109.004 1.57502C108.438 1.56156 108.156 1.36637 108.156 0.989449C108.156 0.599066 108.533 0.403875 109.287 0.403875C113.083 0.403875 116.3 0.323106 118.938 0.161568C120.11 0.0807994 121.166 0.040415 122.109 0.040415C125.164 0.040415 127.56 0.652912 129.297 1.87791C131.034 3.08944 131.902 4.67789 131.902 6.64327C131.902 7.96249 131.491 9.14711 130.67 10.1971C129.849 11.2471 128.819 12.0279 127.581 12.5394C126.356 13.0509 124.915 13.374 123.26 13.5086ZM117.767 12.6606C118.117 12.674 118.38 12.6807 118.555 12.6807C119.726 12.6807 120.904 12.4654 122.088 12.0346C123.286 11.5904 124.128 10.8904 124.612 9.9346C125.11 8.96537 125.36 7.93557 125.36 6.84519C125.36 5.16251 124.861 3.85001 123.865 2.90771C122.869 1.96541 121.584 1.49425 120.009 1.49425C119.349 1.49425 118.602 1.61541 117.767 1.85771V12.6606Z" fill="#CE571B"/>
<path d="M144.675 22.5951L146.331 17.9913C147.233 15.4471 147.684 13.7038 147.684 12.7615C147.684 11.6442 147.051 10.9981 145.786 10.8231C145.221 10.7288 144.938 10.5336 144.938 10.2375C144.938 9.86056 145.214 9.6721 145.766 9.6721C145.981 9.6721 146.372 9.70576 146.937 9.77306C147.529 9.84037 148.229 9.87403 149.037 9.87403C149.575 9.87403 150.228 9.83364 150.996 9.75287C151.642 9.6721 152.012 9.63172 152.106 9.63172C152.752 9.63172 153.075 9.83364 153.075 10.2375C153.075 10.4663 152.867 10.6346 152.449 10.7423C151.413 11.025 150.646 11.6038 150.147 12.4788C149.649 13.3404 148.599 16.0461 146.998 20.5961C144.911 26.5057 143.397 30.4566 142.454 32.4489C141.525 34.4412 140.489 35.8614 139.345 36.7095C138.214 37.5576 137.002 37.9816 135.71 37.9816C134.552 37.9816 133.644 37.6922 132.984 37.1133C132.338 36.5479 132.015 35.8143 132.015 34.9124C132.015 34.3335 132.244 33.7816 132.701 33.2566C133.173 32.7451 133.785 32.4893 134.539 32.4893C135.75 32.4893 136.518 33.2095 136.841 34.6499C137.016 35.3768 137.285 35.7403 137.649 35.7403C138.564 35.7403 139.547 34.8047 140.597 32.9335C141.66 31.0759 142.192 29.6893 142.192 28.7739C142.192 28.3162 141.768 27.0845 140.92 25.0788C140.085 23.0595 138.954 20.448 137.527 17.2442C136.114 14.0404 135.212 12.2029 134.822 11.7317C134.431 11.2471 133.98 10.9442 133.469 10.8231C132.944 10.7154 132.681 10.5269 132.681 10.2577C132.681 9.86729 133.024 9.6721 133.711 9.6721C133.873 9.6721 134.418 9.71922 135.347 9.81345C135.912 9.88076 136.639 9.91441 137.527 9.91441C138.995 9.91441 140.28 9.86056 141.384 9.75287L142.252 9.6721C142.791 9.6721 143.06 9.85383 143.06 10.2173C143.06 10.5673 142.737 10.8029 142.091 10.924C141.66 11.0048 141.323 11.1932 141.081 11.4894C140.839 11.7721 140.718 12.0481 140.718 12.3173C140.718 12.6134 141.074 13.7375 141.788 15.6894C142.515 17.6413 143.477 19.9432 144.675 22.5951Z" fill="#CE571B"/>
<path d="M161.245 25.1192C160.411 25.9134 159.569 26.5124 158.721 26.9163C157.873 27.3066 157.018 27.5018 156.157 27.5018C154.784 27.5018 153.72 27.0913 152.966 26.2701C152.226 25.4355 151.856 24.4259 151.856 23.2413C151.856 22.3259 152.078 21.5115 152.522 20.798C152.98 20.0711 153.538 19.5124 154.198 19.1221C154.871 18.7182 155.975 18.2403 157.51 17.6884C158.802 17.2307 159.663 16.874 160.094 16.6182C160.538 16.349 160.909 15.9653 161.205 15.4673C161.501 14.9557 161.649 14.2961 161.649 13.4884C161.649 12.6 161.427 11.8932 160.983 11.3682C160.538 10.8298 159.926 10.5606 159.145 10.5606C158.472 10.5606 157.994 10.7288 157.712 11.0654C157.429 11.4154 157.213 11.974 157.065 12.7413C156.756 14.2759 155.928 15.0432 154.582 15.0432C154.03 15.0432 153.559 14.8817 153.168 14.5586C152.778 14.2355 152.583 13.7711 152.583 13.1654C152.583 11.8731 153.283 10.9106 154.683 10.2779C156.096 9.63172 157.779 9.30864 159.731 9.30864C161.413 9.30864 162.78 9.56441 163.83 10.0759C164.893 10.5875 165.573 11.1798 165.869 11.8529C166.165 12.5259 166.313 13.5759 166.313 15.0028L166.273 19.7884C166.273 22.3057 166.354 23.9211 166.515 24.6345C166.69 25.348 167.054 25.7047 167.606 25.7047C167.686 25.7047 167.794 25.698 167.929 25.6845C168.198 25.6576 168.38 25.6441 168.474 25.6441C169.026 25.6441 169.302 25.799 169.302 26.1086C169.302 26.3105 169.187 26.4855 168.959 26.6336C168.73 26.7682 168.036 26.9432 166.879 27.1586C165.735 27.3739 164.698 27.4816 163.769 27.4816C162.84 27.4816 162.201 27.3066 161.851 26.9566C161.514 26.5932 161.312 25.9807 161.245 25.1192ZM161.508 17.0423C161.185 17.4326 160.411 17.9509 159.186 18.5971C158.068 19.1894 157.321 19.7144 156.944 20.1721C156.567 20.6432 156.379 21.323 156.379 22.2115C156.379 23.1538 156.574 23.874 156.964 24.372C157.368 24.8567 157.86 25.099 158.438 25.099C159.219 25.099 159.946 24.7422 160.619 24.0288C161.292 23.3018 161.629 22.0297 161.629 20.2124C161.629 19.6471 161.588 18.5903 161.508 17.0423Z" fill="#CE571B"/>
<path d="M176.179 13.2461C177.095 11.9538 178.084 10.9846 179.148 10.3384C180.224 9.6923 181.375 9.36922 182.6 9.36922C183.624 9.36922 184.559 9.63172 185.407 10.1567C186.255 10.6817 186.827 11.3077 187.123 12.0346C187.433 12.7615 187.588 13.7913 187.588 15.124L187.406 23.1807C187.406 24.2845 187.507 25.0182 187.709 25.3816C187.911 25.7451 188.335 25.9807 188.981 26.0884C189.52 26.1826 189.789 26.398 189.789 26.7345C189.789 27.0845 189.526 27.2595 189.001 27.2595C188.557 27.2595 187.581 27.2057 186.073 27.098C185.548 27.0711 185.124 27.0576 184.801 27.0576C184.492 27.0576 183.603 27.1182 182.136 27.2393H181.147C180.595 27.2393 180.319 27.0576 180.319 26.6941C180.319 26.398 180.568 26.2028 181.066 26.1086C181.524 26.0143 181.887 25.8595 182.156 25.6441C182.425 25.4288 182.6 24.372 182.681 22.474C182.775 20.5759 182.823 18.6913 182.823 16.8201C182.823 14.7471 182.654 13.3269 182.318 12.5596C181.995 11.7923 181.369 11.4086 180.44 11.4086C179.296 11.4086 178.232 12.25 177.249 13.9327C176.28 15.6019 175.796 18.173 175.796 21.6461C175.796 22.9922 175.863 23.9682 175.998 24.574C176.132 25.1797 176.294 25.5634 176.482 25.7249C176.684 25.873 177.101 26.0009 177.734 26.1086C178.111 26.1759 178.299 26.3711 178.299 26.6941C178.299 27.0711 178.024 27.2595 177.472 27.2595C177.202 27.2595 176.906 27.2461 176.583 27.2191C175.291 27.098 174.591 27.0374 174.483 27.0374C172.545 27.0374 170.956 27.1047 169.718 27.2393C169.516 27.2663 169.354 27.2797 169.233 27.2797C168.735 27.2797 168.486 27.0845 168.486 26.6941C168.486 26.3576 168.708 26.1624 169.152 26.1086C169.839 26.0278 170.303 25.8393 170.546 25.5432C170.788 25.247 170.963 24.3249 171.071 22.7769C171.192 21.2153 171.252 19.3576 171.252 17.2038C171.252 14.4577 171.151 12.7615 170.95 12.1154C170.748 11.4557 170.263 10.9779 169.496 10.6817C168.944 10.4663 168.668 10.2577 168.668 10.0558C168.668 9.73268 169.065 9.57114 169.859 9.57114C172.094 9.57114 173.904 9.48364 175.291 9.30864C175.802 10.4798 176.099 11.7923 176.179 13.2461Z" fill="#CE571B"/>
<path d="M221.111 27.2999C217.746 27.1249 212.509 27.0374 205.401 27.0374C202.925 27.0374 200.912 27.1114 199.364 27.2595C198.987 27.2864 198.711 27.2999 198.536 27.2999C198.025 27.2999 197.769 27.098 197.769 26.6941C197.769 26.5057 197.836 26.3778 197.971 26.3105C198.105 26.2297 198.435 26.149 198.96 26.0682C199.795 25.947 200.434 25.7047 200.878 25.3413C201.323 24.9643 201.632 24.4124 201.807 23.6855C201.996 22.9451 202.103 21.074 202.13 18.0721C202.157 15.0567 202.171 11.4759 202.171 7.32981C202.171 5.67404 202.05 4.47597 201.807 3.73559C201.565 2.98175 201.215 2.43656 200.757 2.10002C200.313 1.75002 199.68 1.55483 198.859 1.51445C198.28 1.48752 197.991 1.27214 197.991 0.868296C197.991 0.464452 198.321 0.262529 198.98 0.262529L205.684 0.444259C206.721 0.444259 208.168 0.397144 210.025 0.302914C210.699 0.275991 211.156 0.262529 211.399 0.262529C211.964 0.262529 212.247 0.457721 212.247 0.848104C212.247 1.06349 212.152 1.21829 211.964 1.31252C211.789 1.39329 211.338 1.48752 210.611 1.59522C209.709 1.71637 209.07 1.94521 208.693 2.28175C208.329 2.61829 208.08 3.20386 207.946 4.03847C207.825 4.87309 207.764 6.74423 207.764 9.65191V21.9086C207.777 23.7932 207.946 24.9172 208.269 25.2807C208.592 25.6307 209.204 25.8057 210.106 25.8057C212.314 25.8057 213.956 25.6374 215.033 25.3009C216.11 24.9509 217.133 24.3249 218.102 23.423C219.085 22.5211 220.135 21.0067 221.252 18.8798C221.481 18.449 221.717 18.2336 221.959 18.2336C222.323 18.2336 222.504 18.4288 222.504 18.8192C222.504 19.6942 222.04 22.5211 221.111 27.2999Z" fill="#CE571B"/>
<path d="M232.047 25.1192C231.213 25.9134 230.371 26.5124 229.523 26.9163C228.675 27.3066 227.82 27.5018 226.959 27.5018C225.586 27.5018 224.522 27.0913 223.768 26.2701C223.028 25.4355 222.658 24.4259 222.658 23.2413C222.658 22.3259 222.88 21.5115 223.324 20.798C223.782 20.0711 224.34 19.5124 225 19.1221C225.673 18.7182 226.777 18.2403 228.312 17.6884C229.604 17.2307 230.465 16.874 230.896 16.6182C231.34 16.349 231.711 15.9653 232.007 15.4673C232.303 14.9557 232.451 14.2961 232.451 13.4884C232.451 12.6 232.229 11.8932 231.785 11.3682C231.34 10.8298 230.728 10.5606 229.947 10.5606C229.274 10.5606 228.796 10.7288 228.513 11.0654C228.231 11.4154 228.015 11.974 227.867 12.7413C227.558 14.2759 226.73 15.0432 225.384 15.0432C224.832 15.0432 224.361 14.8817 223.97 14.5586C223.58 14.2355 223.385 13.7711 223.385 13.1654C223.385 11.8731 224.085 10.9106 225.485 10.2779C226.898 9.63172 228.581 9.30864 230.533 9.30864C232.215 9.30864 233.582 9.56441 234.632 10.0759C235.695 10.5875 236.375 11.1798 236.671 11.8529C236.967 12.5259 237.115 13.5759 237.115 15.0028L237.075 19.7884C237.075 22.3057 237.156 23.9211 237.317 24.6345C237.492 25.348 237.856 25.7047 238.408 25.7047C238.488 25.7047 238.596 25.698 238.731 25.6845C239 25.6576 239.182 25.6441 239.276 25.6441C239.828 25.6441 240.104 25.799 240.104 26.1086C240.104 26.3105 239.989 26.4855 239.761 26.6336C239.532 26.7682 238.838 26.9432 237.681 27.1586C236.537 27.3739 235.5 27.4816 234.571 27.4816C233.642 27.4816 233.003 27.3066 232.653 26.9566C232.316 26.5932 232.114 25.9807 232.047 25.1192ZM232.31 17.0423C231.987 17.4326 231.213 17.9509 229.988 18.5971C228.87 19.1894 228.123 19.7144 227.746 20.1721C227.369 20.6432 227.181 21.323 227.181 22.2115C227.181 23.1538 227.376 23.874 227.766 24.372C228.17 24.8567 228.662 25.099 229.24 25.099C230.021 25.099 230.748 24.7422 231.421 24.0288C232.094 23.3018 232.431 22.0297 232.431 20.2124C232.431 19.6471 232.39 18.5903 232.31 17.0423Z" fill="#CE571B"/>
<path d="M259.965 21.1615C260.463 20.0442 261.123 18.2874 261.944 15.8913C262.765 13.4817 263.175 12.1692 263.175 11.9538C263.175 11.4019 262.758 11.0721 261.924 10.9644C261.291 10.8702 260.975 10.6481 260.975 10.2981C260.975 9.92114 261.224 9.73268 261.722 9.73268C261.924 9.73268 262.173 9.74614 262.469 9.77306C263.034 9.84037 263.519 9.87403 263.923 9.87403C264.34 9.87403 264.878 9.8471 265.538 9.79326C266.009 9.75287 266.278 9.73268 266.346 9.73268C266.79 9.73268 267.012 9.9346 267.012 10.3384C267.012 10.5942 266.783 10.7894 266.325 10.924C265.827 11.0721 265.39 11.3481 265.013 11.7519C264.649 12.1557 264.246 13.0375 263.801 14.3971L259.682 25.5836C259.265 26.8624 258.868 27.5018 258.491 27.5018C258.195 27.5018 257.905 27.172 257.623 26.5124L253.402 17.2846L252.938 16.2144L250.071 23.1605C249.007 25.6778 248.401 27.0239 248.253 27.1989C248.105 27.3874 247.957 27.4816 247.809 27.4816C247.526 27.4816 247.237 27.1384 246.941 26.4518C246.443 25.3076 245.837 24.0018 245.124 22.5345L240.681 13.448C240.129 12.3442 239.726 11.6644 239.47 11.4086C239.214 11.1394 238.871 10.9644 238.44 10.8836C237.928 10.7894 237.673 10.5808 237.673 10.2577C237.673 9.89422 237.949 9.71249 238.501 9.71249C238.837 9.71249 239.443 9.74614 240.318 9.81345C240.977 9.86729 241.59 9.89422 242.155 9.89422C242.869 9.89422 243.905 9.8471 245.265 9.75287C245.655 9.72595 245.965 9.71249 246.194 9.71249C246.8 9.71249 247.102 9.91441 247.102 10.3183C247.102 10.6548 246.806 10.85 246.214 10.9038C245.501 10.9711 245.144 11.2673 245.144 11.7923C245.144 12.2769 246.577 15.5077 249.445 21.4846C251.047 17.7557 251.848 15.4403 251.848 14.5384C251.848 13.8654 251.652 13.1452 251.262 12.3779C250.885 11.6106 250.36 11.1259 249.687 10.924C249.243 10.7894 249.021 10.5673 249.021 10.2577C249.021 9.89422 249.27 9.71249 249.768 9.71249C249.929 9.71249 250.205 9.72595 250.596 9.75287C251.7 9.83364 252.911 9.87403 254.23 9.87403C254.769 9.87403 255.509 9.83364 256.451 9.75287C256.828 9.72595 257.131 9.71249 257.36 9.71249C257.831 9.71249 258.067 9.90095 258.067 10.2779C258.067 10.6009 257.825 10.8029 257.34 10.8836C256.532 11.0048 256.128 11.3211 256.128 11.8327C256.128 12.2904 256.27 12.8356 256.552 13.4682C257.697 16.0394 258.834 18.6038 259.965 21.1615Z" fill="#CE571B"/>
<path d="M270.255 25.5836C270.255 26.647 269.851 27.8047 269.043 29.0566C268.249 30.322 267.233 31.3451 265.994 32.1258C264.756 32.9201 263.921 33.3172 263.49 33.3172C263.194 33.3172 263.046 33.1355 263.046 32.772C263.046 32.5835 263.188 32.3951 263.47 32.2066C264.655 31.3855 265.503 30.5441 266.014 29.6826C266.526 28.8211 266.782 28.1547 266.782 27.6836C266.782 27.2932 266.479 27.0239 265.873 26.8759C264.244 26.472 263.43 25.6576 263.43 24.4326C263.43 23.6788 263.746 23.0595 264.379 22.5749C265.012 22.0769 265.705 21.8278 266.459 21.8278C267.616 21.8278 268.538 22.2115 269.225 22.9788C269.912 23.7461 270.255 24.6143 270.255 25.5836Z" fill="#CE571B"/>
<path d="M303.172 27.2999C299.807 27.1249 294.57 27.0374 287.463 27.0374C284.986 27.0374 282.973 27.1114 281.425 27.2595C281.048 27.2864 280.772 27.2999 280.597 27.2999C280.086 27.2999 279.83 27.098 279.83 26.6941C279.83 26.5057 279.897 26.3778 280.032 26.3105C280.167 26.2297 280.496 26.149 281.021 26.0682C281.856 25.947 282.495 25.7047 282.94 25.3413C283.384 24.9643 283.693 24.4124 283.868 23.6855C284.057 22.9451 284.165 21.074 284.192 18.0721C284.218 15.0567 284.232 11.4759 284.232 7.32981C284.232 5.67404 284.111 4.47597 283.868 3.73559C283.626 2.98175 283.276 2.43656 282.818 2.10002C282.374 1.75002 281.742 1.55483 280.92 1.51445C280.342 1.48752 280.052 1.27214 280.052 0.868296C280.052 0.464452 280.382 0.262529 281.042 0.262529L287.745 0.444259C288.782 0.444259 290.229 0.397144 292.087 0.302914C292.76 0.275991 293.217 0.262529 293.46 0.262529C294.025 0.262529 294.308 0.457721 294.308 0.848104C294.308 1.06349 294.214 1.21829 294.025 1.31252C293.85 1.39329 293.399 1.48752 292.672 1.59522C291.77 1.71637 291.131 1.94521 290.754 2.28175C290.391 2.61829 290.141 3.20386 290.007 4.03847C289.886 4.87309 289.825 6.74423 289.825 9.65191V21.9086C289.839 23.7932 290.007 24.9172 290.33 25.2807C290.653 25.6307 291.266 25.8057 292.167 25.8057C294.375 25.8057 296.017 25.6374 297.094 25.3009C298.171 24.9509 299.194 24.3249 300.164 23.423C301.146 22.5211 302.196 21.0067 303.314 18.8798C303.542 18.449 303.778 18.2336 304.02 18.2336C304.384 18.2336 304.565 18.4288 304.565 18.8192C304.565 19.6942 304.101 22.5211 303.172 27.2999Z" fill="#CE571B"/>
<path d="M326.951 27.2999C323.585 27.1249 318.349 27.0374 311.241 27.0374C308.764 27.0374 306.752 27.1114 305.204 27.2595C304.827 27.2864 304.551 27.2999 304.376 27.2999C303.864 27.2999 303.608 27.098 303.608 26.6941C303.608 26.5057 303.676 26.3778 303.81 26.3105C303.945 26.2297 304.275 26.149 304.8 26.0682C305.634 25.947 306.274 25.7047 306.718 25.3413C307.162 24.9643 307.472 24.4124 307.647 23.6855C307.835 22.9451 307.943 21.074 307.97 18.0721C307.997 15.0567 308.01 11.4759 308.01 7.32981C308.01 5.67404 307.889 4.47597 307.647 3.73559C307.404 2.98175 307.054 2.43656 306.597 2.10002C306.153 1.75002 305.52 1.55483 304.699 1.51445C304.12 1.48752 303.83 1.27214 303.83 0.868296C303.83 0.464452 304.16 0.262529 304.82 0.262529L311.524 0.444259C312.56 0.444259 314.007 0.397144 315.865 0.302914C316.538 0.275991 316.996 0.262529 317.238 0.262529C317.803 0.262529 318.086 0.457721 318.086 0.848104C318.086 1.06349 317.992 1.21829 317.803 1.31252C317.628 1.39329 317.178 1.48752 316.451 1.59522C315.549 1.71637 314.909 1.94521 314.532 2.28175C314.169 2.61829 313.92 3.20386 313.785 4.03847C313.664 4.87309 313.604 6.74423 313.604 9.65191V21.9086C313.617 23.7932 313.785 24.9172 314.108 25.2807C314.431 25.6307 315.044 25.8057 315.946 25.8057C318.153 25.8057 319.796 25.6374 320.873 25.3009C321.95 24.9509 322.973 24.3249 323.942 23.423C324.925 22.5211 325.975 21.0067 327.092 18.8798C327.321 18.449 327.556 18.2336 327.799 18.2336C328.162 18.2336 328.344 18.4288 328.344 18.8192C328.344 19.6942 327.879 22.5211 326.951 27.2999Z" fill="#CE571B"/>
<path d="M350.325 2.24137C350.608 1.89137 350.904 1.50099 351.214 1.07022C351.577 0.54522 351.88 0.282722 352.122 0.282722C352.391 0.282722 352.566 0.350029 352.647 0.484644C352.728 0.619259 352.795 1.03656 352.849 1.73656L353.253 8.03653L353.293 8.84422C353.293 9.38268 353.078 9.65191 352.647 9.65191C352.364 9.65191 352.136 9.4298 351.961 8.98557C351.409 7.55865 350.413 5.97693 348.972 4.2404C347.545 2.4904 345.741 1.61541 343.561 1.61541C341.945 1.61541 340.586 2.08656 339.482 3.02886C338.391 3.95771 337.537 5.23655 336.917 6.86538C336.312 8.49422 336.009 10.4461 336.009 12.7211C336.009 16.6115 336.864 19.7076 338.573 22.0095C340.283 24.298 342.41 25.4422 344.954 25.4422C347.714 25.4422 350.244 23.773 352.546 20.4346C352.829 20.0307 353.098 19.8288 353.354 19.8288C353.785 19.8288 354 20.0442 354 20.4749C354 21.3634 352.937 22.7769 350.81 24.7153C348.696 26.6538 346.044 27.623 342.854 27.623C338.627 27.623 335.289 26.3172 332.839 23.7057C330.389 21.0942 329.164 17.8836 329.164 14.074C329.164 10.2779 330.395 6.98654 332.859 4.20001C335.336 1.40002 338.459 3.05176e-05 342.228 3.05176e-05C344.88 3.05176e-05 347.579 0.747143 350.325 2.24137Z" fill="#CE571B"/>
<path d="M93.0763 19.893C92.0482 18.8458 91.5342 17.8624 91.5342 16.9429C91.5342 16.2149 91.8087 15.5827 92.3579 15.0463C92.9071 14.51 93.5839 14.2418 94.3885 14.2418C95.1292 14.2418 95.7263 14.4525 96.1797 14.8739C96.6394 15.289 96.8693 15.7551 96.8693 16.2724C96.8693 17.0642 96.3489 17.9135 95.308 18.8202C96.5149 19.7781 97.642 21.1765 98.6892 23.0155C99.232 22.1343 99.5034 21.2882 99.5034 20.4773C99.5034 19.8004 99.1745 19.4364 98.5168 19.3853C98.2486 19.3598 98.1145 19.264 98.1145 19.098C98.1145 18.9256 98.2965 18.8394 98.6605 18.8394L100.576 18.8777C100.953 18.8777 101.39 18.8585 101.888 18.8202C102.125 18.8011 102.284 18.7915 102.367 18.7915C102.591 18.7915 102.703 18.8809 102.703 19.0597C102.703 19.1874 102.575 19.2832 102.319 19.347C101.898 19.4556 101.575 19.5961 101.352 19.7685C101.128 19.9409 100.956 20.1293 100.835 20.3336C100.713 20.5315 100.426 21.0999 99.9727 22.0385C99.679 22.6324 99.3725 23.156 99.0532 23.6094C99.8641 25.2696 100.614 26.0998 101.304 26.0998C101.585 26.0998 101.888 25.9912 102.214 25.7741C102.393 25.6528 102.514 25.5921 102.578 25.5921C102.763 25.5921 102.856 25.6815 102.856 25.8603C102.856 26.0391 102.514 26.3201 101.831 26.7032C101.154 27.0863 100.493 27.2779 99.8482 27.2779C99.3437 27.2779 98.9063 27.1215 98.5359 26.8086C98.1656 26.4957 97.7952 26.0359 97.4249 25.4293C95.9179 26.6681 94.5162 27.2875 93.22 27.2875C92.2238 27.2875 91.4065 27.0001 90.7679 26.4254C90.1293 25.8507 89.8101 25.0845 89.8101 24.1266C89.8101 23.5839 89.9633 23.0092 90.2698 22.4025C90.5763 21.7959 91.5118 20.9594 93.0763 19.893ZM94.8004 18.3509C95.4198 17.7379 95.7295 17.0993 95.7295 16.4352C95.7295 15.9244 95.5826 15.5348 95.2889 15.2666C94.9951 14.9985 94.6727 14.8644 94.3215 14.8644C94.0213 14.8644 93.7595 14.9793 93.536 15.2092C93.3125 15.4391 93.2008 15.7328 93.2008 16.0904C93.2008 16.7609 93.734 17.5144 94.8004 18.3509ZM93.5073 20.3528C92.575 21.1126 92.1089 21.9428 92.1089 22.8431C92.1089 23.5519 92.3515 24.2352 92.8368 24.8929C93.3285 25.5442 93.9671 25.8699 94.7525 25.8699C95.4677 25.8699 96.2531 25.5283 97.1088 24.845C96.1701 23.089 94.9696 21.5916 93.5073 20.3528Z" fill="#CE571B"/>
</svg>
